<svg width="375" height="95" viewBox="0 0 375 95" fill="none" xmlns="http://www.w3.org/2000/svg">
<rect x="0.5" width="374" height="95" rx="10" fill="#333242"/>
<mask id="mask0" mask-type="alpha" maskUnits="userSpaceOnUse" x="0" y="0" width="375" height="95">
<rect x="0.5" width="374" height="95" rx="10" fill="#333242"/>
</mask>
<g mask="url(#mask0)">
<path d="M58.4519 40.4455C58.4519 23.0704 82.9519 6.58416 98.5 0H0.5V95H89.548C93.3173 79.4802 84.8363 67.7228 75.8846 62.0792C66.9329 56.4356 58.4519 54.5 58.4519 40.4455Z" fill="#444359"/>
<path d="M200.05 32.7186C184.204 16.6279 191.594 2.20173 197.27 -3H374.5V43.4688C333.841 87.1633 306.735 55.2594 304.303 47.2834C301.87 39.3074 299.438 12.2584 261.212 35.4928C222.985 58.7272 219.858 52.8319 200.05 32.7186Z" fill="#9B9DB4" fill-opacity="0.49"/>
<path d="M246.5 97.9998C246.5 115.673 232.173 130 214.5 130C196.827 130 182.5 115.673 182.5 97.9998C178.864 64.0664 191.221 70.278 204.804 77.3438C210.764 80.4442 217.683 79.3984 223.694 76.3997C243.788 66.3768 246.5 82.4416 246.5 97.9998Z" fill="#6C71A1"/>
</g>
</svg>
