<svg width="178" height="210" viewBox="0 0 178 210" fill="none" xmlns="http://www.w3.org/2000/svg">
<rect x="0.5" width="177" height="210" rx="10" fill="#FFC97E"/>
<mask id="mask0" mask-type="alpha" maskUnits="userSpaceOnUse" x="0" y="0" width="178" height="210">
<rect x="0.5" width="177" height="210" rx="10" fill="#FFC97E"/>
</mask>
<g mask="url(#mask0)">
<path d="M162.124 -3.63141C162.124 -3.63141 144.918 -15.0276 123.96 -9.01588C102.999 -3.00606 88.6914 15.781 76.6966 30.6922C64.7 45.606 65.2238 63.9671 77.4447 75.3454C89.6656 86.7236 101.976 77.5595 121.858 81.9507C141.741 86.3419 146.381 90.4995 165.412 83.4512C184.444 76.403 193.646 50.7889 185.337 28.0461C177.025 5.3015 162.124 -3.63141 162.124 -3.63141Z" fill="#F1B869"/>
<path d="M107.409 64.5631C106.578 64.8376 105.679 64.384 105.405 63.5545L99.8592 46.7747C99.6212 46.0547 98.8446 45.6628 98.1262 45.9003C97.4078 46.1377 97.0176 46.9152 97.2556 47.6352L101.395 60.161C101.639 60.8983 101.239 61.695 100.504 61.9381C99.768 62.1812 98.9723 61.7797 98.7286 61.0424L96.4431 54.1272C96.267 53.5943 95.6931 53.3048 95.1615 53.4805C94.6298 53.6562 94.3416 54.2307 94.5177 54.7635L95.3677 57.3355L93.2469 58.0364L93.1517 57.7484L94.9851 57.1425L94.2303 54.8585C94.0018 54.1673 94.3766 53.4204 95.0663 53.1925C95.756 52.9645 96.502 53.341 96.7304 54.0322L99.0159 60.9474C99.2073 61.5263 99.8309 61.841 100.408 61.6501C100.986 61.4592 101.299 60.8349 101.108 60.256L96.9682 47.7302C96.6779 46.8518 97.1545 45.902 98.031 45.6123C98.9075 45.3226 99.8562 45.8013 100.147 46.6798L105.692 63.4595C105.914 64.1306 106.641 64.4974 107.313 64.2751C107.983 64.0538 108.348 63.3261 108.126 62.6551L101.36 42.183C101.008 41.1173 101.587 39.9645 102.65 39.6131C103.713 39.2616 104.865 39.8427 105.217 40.9083L111.952 61.2854C112.19 62.0054 112.966 62.3973 113.685 62.1599C114.403 61.9224 114.793 61.1449 114.555 60.4249L109.188 44.1866C108.851 43.167 109.405 42.064 110.422 41.7278C111.439 41.3916 112.541 41.9475 112.878 42.9671L116.837 54.9456C117.044 55.5706 117.721 55.9123 118.344 55.7062C118.968 55.5001 119.308 54.8222 119.102 54.1972L116.949 47.6852C116.701 46.9335 117.108 46.1215 117.858 45.8736C118.609 45.6257 119.422 46.034 119.671 46.7857L120.325 48.7644L122.446 48.0635L122.541 48.3515L120.133 49.1474L119.384 46.8807C119.187 46.2874 118.546 45.966 117.954 46.1616C117.362 46.3573 117.042 46.9998 117.237 47.5902L119.389 54.1022C119.648 54.8856 119.221 55.7359 118.44 55.9942C117.658 56.2526 116.809 55.824 116.55 55.0406L112.591 43.0621C112.306 42.2009 111.377 41.7318 110.517 42.0158C109.658 42.2998 109.191 43.2305 109.476 44.0916L114.843 60.3299C115.133 61.2084 114.656 62.1582 113.78 62.4479C112.903 62.7376 111.955 62.2588 111.664 61.3804L104.929 41.0033C104.63 40.0961 103.65 39.6019 102.745 39.9011C101.84 40.2003 101.348 41.1807 101.648 42.088L108.414 62.5601C108.691 63.3886 108.239 64.2886 107.409 64.5631Z" fill="#FEDEA5"/>
<path d="M135.14 55.3968C134.309 55.6713 133.41 55.2176 133.136 54.3882L127.59 37.6084C127.352 36.8884 126.576 36.4965 125.857 36.7339C125.139 36.9714 124.749 37.7489 124.987 38.4689L129.127 50.9947C129.37 51.732 128.971 52.5286 128.235 52.7718C127.499 53.0149 126.704 52.6134 126.46 51.8761L124.174 44.9608C123.998 44.428 123.424 44.1385 122.893 44.3142C122.361 44.4899 122.073 45.0644 122.249 45.5972L123.099 48.1692L120.978 48.8701L120.883 48.5821L122.716 47.9761L121.962 45.6922C121.733 45.0009 122.108 44.2541 122.798 44.0261C123.487 43.7982 124.233 44.1746 124.462 44.8659L126.747 51.7811C126.939 52.36 127.562 52.6747 128.14 52.4837C128.717 52.2928 129.031 51.6686 128.839 51.0897L124.699 38.5639C124.409 37.6854 124.886 36.7356 125.762 36.4459C126.639 36.1563 127.588 36.635 127.878 37.5134L133.424 54.2932C133.645 54.9643 134.372 55.331 135.045 55.1088C135.714 54.8875 136.079 54.1598 135.858 53.4887L129.092 33.0166C128.739 31.951 129.318 30.7981 130.381 30.4467C131.444 30.0953 132.596 30.6764 132.948 31.742L139.683 52.1191C139.921 52.8391 140.697 53.231 141.416 52.9935C142.134 52.7561 142.524 51.9786 142.286 51.2586L136.92 35.0203C136.583 34.0007 137.136 32.8977 138.153 32.5615C139.171 32.2252 140.273 32.7812 140.609 33.8008L144.568 45.7793C144.775 46.4043 145.452 46.746 146.076 46.5399C146.699 46.3338 147.04 45.6559 146.833 45.0309L144.681 38.5188C144.432 37.7671 144.84 36.9552 145.593 36.7063C146.343 36.4584 147.154 36.8677 147.402 37.6194L148.056 39.5981L150.177 38.8971L150.272 39.1851L147.864 39.9811L147.115 37.7144C146.919 37.1211 146.28 36.7987 145.688 36.9944C145.096 37.19 144.773 37.8334 144.968 38.4239L147.12 44.9359C147.379 45.7193 146.953 46.5695 146.171 46.8279C145.389 47.0862 144.54 46.6577 144.281 45.8743L140.322 33.8957C140.037 33.0346 139.108 32.5655 138.249 32.8495C137.389 33.1335 136.922 34.0641 137.207 34.9253L142.574 51.1636C142.864 52.042 142.388 52.9918 141.511 53.2815C140.635 53.5712 139.686 53.0925 139.395 52.214L132.661 31.837C132.361 30.9297 131.382 30.4356 130.476 30.7347C129.571 31.0339 129.079 32.0144 129.379 32.9216L136.145 53.3937C136.422 54.2223 135.97 55.1223 135.14 55.3968Z" fill="#FEDEA5"/>
<path d="M162.871 46.2317C162.041 46.5062 161.142 46.0525 160.868 45.2231L155.322 28.4433C155.084 27.7233 154.307 27.3314 153.589 27.5689C152.871 27.8063 152.48 28.5838 152.718 29.3038L156.858 41.8296C157.102 42.5669 156.702 43.3635 155.967 43.6067C155.231 43.8498 154.435 43.4483 154.191 42.711L151.906 35.7957C151.73 35.2629 151.156 34.9734 150.624 35.1491C150.093 35.3248 149.804 35.8993 149.98 36.4321L150.831 39.0041L148.71 39.705L148.615 39.417L150.448 38.811L149.693 36.5271C149.465 35.8358 149.839 35.089 150.529 34.8611C151.219 34.6331 151.965 35.0095 152.193 35.7008L154.479 42.616C154.67 43.1949 155.294 43.5096 155.871 43.3187C156.449 43.1278 156.762 42.5035 156.571 41.9246L152.431 29.3988C152.141 28.5204 152.617 27.5705 153.494 27.2808C154.37 26.9912 155.319 27.4699 155.609 28.3483L161.155 45.1281C161.377 45.7992 162.104 46.1659 162.776 45.9437C163.449 45.7214 163.811 44.9947 163.589 44.3236L156.823 23.8515C156.471 22.7859 157.049 21.6331 158.113 21.2816C159.176 20.9302 160.327 21.5113 160.68 22.5769L167.414 42.954C167.652 43.674 168.429 44.0659 169.147 43.8284C169.866 43.591 170.256 42.8135 170.018 42.0935L164.651 25.8552C164.314 24.8356 164.868 23.7326 165.885 23.3964C166.902 23.0601 168.004 23.6161 168.341 24.6357L172.3 36.6142C172.507 37.2392 173.184 37.5809 173.807 37.3748C174.431 37.1687 174.771 36.4908 174.565 35.8658L172.412 29.3538C172.164 28.602 172.571 27.7901 173.324 27.5413C174.074 27.2934 174.885 27.7026 175.134 28.4543L175.788 30.433L177.908 29.732L178.004 30.0201L175.595 30.816L174.846 28.5493C174.65 27.956 174.011 27.6336 173.419 27.8293C172.827 28.0249 172.505 28.6683 172.7 29.2588L174.852 35.7708C175.111 36.5542 174.684 37.4044 173.903 37.6628C173.121 37.9211 172.272 37.4926 172.013 36.7092L168.054 24.7306C167.769 23.8695 166.839 23.4004 165.98 23.6844C165.121 23.9684 164.654 24.899 164.939 25.7602L170.305 41.9985C170.596 42.8769 170.119 43.8268 169.243 44.1164C168.366 44.4061 167.417 43.9274 167.127 43.0489L160.392 22.6719C160.092 21.7646 159.113 21.2705 158.208 21.5697C157.303 21.8688 156.811 22.8493 157.111 23.7565L163.877 44.2286C164.154 45.0572 163.702 45.9572 162.871 46.2317Z" fill="#FEDEA5"/>
<path d="M120.05 -0.222687L119.168 -2.89259L117.304 -0.79735L120.05 -0.222687Z" fill="#263238"/>
<path d="M116.494 -2.07962L116.075 -1.94095L116.976 0.786552L117.396 0.647885L116.494 -2.07962Z" fill="#263238"/>
<path d="M124.563 -7.49692C122.603 -6.84917 121.543 -4.73217 122.192 -2.77079C122.841 -0.806524 124.956 0.258088 126.913 -0.388713C128.872 -1.03647 129.932 -3.15347 129.284 -5.11485C128.635 -7.07911 126.523 -8.14467 124.563 -7.49692ZM125.854 -1.90451L124.799 -1.55594L123.561 -5.30301L124.615 -5.65158L125.854 -1.90451ZM127.914 -2.5855L126.86 -2.23693L125.621 -5.98401L126.676 -6.33258L127.914 -2.5855Z" fill="#263238"/>
<path d="M164.368 12.7161C164.13 12.7949 163.873 12.6656 163.794 12.4265L162.504 8.5239C162.425 8.28484 162.554 8.02824 162.793 7.94941C163.031 7.87057 163.287 7.99991 163.366 8.23896L164.656 12.1416C164.734 12.3777 164.607 12.6372 164.368 12.7161Z" fill="#FFDB9D"/>
<path d="M162.786 12.6667C162.548 12.7455 162.291 12.6162 162.212 12.3772L161.263 9.50565C161.184 9.26659 161.313 9.00999 161.552 8.93116C161.79 8.85232 162.046 8.98166 162.125 9.22071L163.074 12.0922C163.153 12.3313 163.025 12.5879 162.786 12.6667Z" fill="#FFDB9D"/>
<path d="M161.376 13.1328C161.137 13.2117 160.881 13.0823 160.802 12.8433L159.853 9.97177C159.774 9.73272 159.902 9.47611 160.141 9.39728C160.379 9.31845 160.636 9.44778 160.715 9.68684L161.664 12.5584C161.743 12.7974 161.614 13.054 161.376 13.1328Z" fill="#FFDB9D"/>
<path d="M178.302 7.53894C178.063 7.61777 177.807 7.48844 177.728 7.24938L176.779 4.37787C176.7 4.13882 176.829 3.88221 177.067 3.80338C177.306 3.72455 177.562 3.85388 177.641 4.09293L178.59 6.96445C178.669 7.2035 178.54 7.46011 178.302 7.53894Z" fill="#FFDB9D"/>
<path d="M176.891 8.00505C176.652 8.08388 176.396 7.95455 176.317 7.71549L175.368 4.84398C175.289 4.60493 175.418 4.34832 175.656 4.26949C175.895 4.19066 176.151 4.31999 176.23 4.55905L177.179 7.43056C177.258 7.66961 177.129 7.92622 176.891 8.00505Z" fill="#FFDB9D"/>
<path d="M165.779 12.2494C165.541 12.3283 165.284 12.1989 165.205 11.9599L163.915 8.05727C163.836 7.81821 163.965 7.56161 164.204 7.48278C164.442 7.40394 164.699 7.53328 164.778 7.77233L166.067 11.6749C166.145 11.9111 166.015 12.1715 165.779 12.2494Z" fill="#FFDB9D"/>
<path d="M167.414 12.4695C167.175 12.5483 166.919 12.419 166.84 12.1799L165.096 6.90347C165.017 6.66442 165.146 6.40782 165.384 6.32898C165.623 6.25015 165.879 6.37949 165.958 6.61854L167.702 11.895C167.781 12.134 167.652 12.3906 167.414 12.4695Z" fill="#FFDB9D"/>
<path d="M169.183 13.0865C168.944 13.1654 168.688 13.036 168.609 12.797L166.15 5.35757C166.071 5.11852 166.2 4.86192 166.438 4.78308C166.677 4.70425 166.933 4.83359 167.012 5.07264L169.471 12.5121C169.549 12.7482 169.421 13.0077 169.183 13.0865Z" fill="#FFDB9D"/>
<path d="M175.653 8.9861C175.415 9.06494 175.159 8.9356 175.08 8.69655L173.79 4.79395C173.711 4.55489 173.839 4.29829 174.078 4.21946C174.316 4.14062 174.573 4.26996 174.652 4.50901L175.942 8.41161C176.02 8.64779 175.889 8.90822 175.653 8.9861Z" fill="#FFDB9D"/>
<path d="M174.242 9.45273C174.003 9.53156 173.747 9.40223 173.668 9.16318L172.378 5.26057C172.299 5.02152 172.428 4.76492 172.666 4.68609C172.905 4.60725 173.161 4.73659 173.24 4.97564L174.53 8.87824C174.608 9.11441 174.48 9.3739 174.242 9.45273Z" fill="#FFDB9D"/>
<path d="M173.057 10.6045C172.819 10.6833 172.563 10.554 172.484 10.3149L170.74 5.0385C170.661 4.79945 170.79 4.54284 171.028 4.46401C171.267 4.38518 171.523 4.51451 171.602 4.75356L173.346 10.03C173.425 10.2691 173.296 10.5257 173.057 10.6045Z" fill="#FFDB9D"/>
<path d="M172.004 12.1538C171.766 12.2326 171.51 12.1033 171.431 11.8643L168.972 4.42484C168.893 4.18578 169.022 3.92918 169.26 3.85035C169.499 3.77151 169.755 3.90085 169.834 4.1399L172.293 11.5793C172.371 11.8155 172.243 12.075 172.004 12.1538Z" fill="#FFDB9D"/>
<path d="M171.047 13.9936C170.809 14.0724 170.553 13.9431 170.474 13.704L167.106 3.51404C167.027 3.27499 167.156 3.01838 167.394 2.93955C167.633 2.86072 167.889 2.99005 167.968 3.2291L171.336 13.4191C171.415 13.6581 171.286 13.9147 171.047 13.9936Z" fill="#FFDB9D"/>
<path d="M84.931 28.0737C84.0539 26.6448 82.2831 25.9745 80.6681 26.5082C79.0416 27.0458 78.0113 28.6642 78.1833 30.3517C76.5917 31.1589 75.7955 33.0418 76.3657 34.767C76.9644 36.5786 78.813 37.6193 80.6691 37.188L80.501 36.4672C79.0213 36.8125 77.5447 35.9811 77.0669 34.5352C76.5871 33.0836 77.3177 31.494 78.727 30.9164L79.0019 30.8032L78.9489 30.5076C78.6883 29.0826 79.5267 27.665 80.9004 27.211C82.2769 26.7561 83.7959 27.3977 84.4348 28.7041L84.5931 29.0287L84.9199 28.8792C85.0195 28.8335 85.1201 28.7907 85.2236 28.7565C86.7524 28.2512 88.406 29.088 88.9115 30.6174C89.4179 32.1496 88.5848 33.8051 87.0588 34.3094L87.2911 35.0122C89.205 34.3796 90.2467 32.3038 89.6127 30.3856C88.974 28.4434 86.8536 27.3807 84.931 28.0737Z" fill="#4A5161"/>
<path d="M84.7144 31.2666C84.6782 31.1572 84.5913 31.0677 84.4803 31.0309C84.3693 30.9941 84.2477 31.012 84.1519 31.0788L80.8323 33.3899C80.6972 33.4825 80.6423 33.654 80.6937 33.8095L82.0901 38.0347C81.9542 38.0285 81.8125 38.0434 81.6774 38.088C81.0797 38.2856 80.7549 38.9328 80.9529 39.5319C81.1509 40.131 81.7974 40.4572 82.3952 40.2597C82.9613 40.0726 83.2764 39.4828 83.1425 38.9137L83.154 38.9099L82.0888 35.687L84.7795 33.8169L85.3963 35.6832C85.2633 35.6761 85.1254 35.6929 84.9903 35.7376C84.3926 35.9351 84.0678 36.5824 84.2658 37.1815C84.4638 37.7805 85.1103 38.1068 85.7081 37.9092C86.3058 37.7116 86.6306 37.0644 86.4326 36.4653C86.4307 36.4596 86.4259 36.4547 86.424 36.449L84.7115 31.2676L84.7144 31.2666ZM84.5358 33.0796L81.8461 34.9526L81.4777 33.8379L84.1684 31.9679L84.5358 33.0796Z" fill="#4A5161"/>
<path d="M114.475 15.0273C114.343 14.627 114.746 14.0145 114.57 13.6447C114.388 13.2672 113.658 13.2016 113.43 12.8585C113.2 12.5096 113.431 11.8103 113.163 11.4996C112.89 11.1842 112.167 11.3113 111.859 11.0361C111.547 10.7589 111.592 10.0253 111.247 9.79118C110.901 9.55703 110.239 9.8685 109.868 9.68126C109.497 9.49401 109.352 8.77523 108.959 8.63682C108.57 8.50035 108.005 8.97133 107.597 8.88563C107.193 8.80185 106.864 8.14386 106.449 8.11183C106.037 8.08174 105.618 8.68362 105.201 8.70625C104.792 8.72987 104.303 8.17877 103.893 8.25705C103.49 8.33248 103.241 9.02506 102.842 9.15708C102.442 9.28909 101.83 8.88433 101.461 9.06057C101.085 9.24253 101.02 9.9731 100.678 10.2012C100.33 10.4312 99.6317 10.1988 99.322 10.4673C99.0075 10.7406 99.1353 11.465 98.861 11.773C98.5847 12.0847 97.8524 12.0392 97.6191 12.3847C97.3859 12.7301 97.6977 13.3938 97.5112 13.7653C97.3248 14.1368 96.6075 14.2812 96.4699 14.675C96.3342 15.0649 96.8051 15.6312 96.72 16.0395C96.637 16.4439 95.9806 16.7727 95.9492 17.1888C95.9197 17.6011 96.521 18.0221 96.5442 18.4394C96.5683 18.8499 96.0188 19.3382 96.0975 19.7499C96.1762 20.152 96.865 20.4036 96.9973 20.8039C97.1296 21.2042 96.7264 21.8167 96.9028 22.1865C97.085 22.564 97.8143 22.6296 98.0425 22.9727C98.2725 23.3216 98.0414 24.021 98.3099 24.3316C98.5831 24.647 99.3061 24.5199 99.6138 24.7952C99.9254 25.0724 99.8809 25.8059 100.226 26.04C100.571 26.2742 101.233 25.9627 101.604 26.15C101.975 26.3372 102.121 27.056 102.514 27.1944C102.903 27.3309 103.468 26.8599 103.876 26.9456C104.279 27.0294 104.608 27.6874 105.024 27.7194C105.435 27.7495 105.855 27.1476 106.271 27.125C106.681 27.1013 107.169 27.6524 107.58 27.5742C107.981 27.4958 108.232 26.8062 108.631 26.6741C109.031 26.5421 109.642 26.9469 110.011 26.7706C110.388 26.5887 110.452 25.8581 110.795 25.63C111.143 25.4 111.841 25.6324 112.151 25.3639C112.465 25.0906 112.337 24.3662 112.612 24.0582C112.888 23.7465 113.62 23.792 113.854 23.4465C114.087 23.1011 113.775 22.4374 113.961 22.0659C114.148 21.6944 114.865 21.55 115.003 21.1562C115.139 20.7664 114.668 20.2 114.753 19.7917C114.836 19.3873 115.492 19.0585 115.524 18.6424C115.553 18.2301 114.952 17.8091 114.929 17.3918C114.904 16.9813 115.454 16.493 115.375 16.0813C115.298 15.6754 114.608 15.4277 114.475 15.0273Z" fill="#4A5161"/>
<path d="M107.68 27.7035C107.657 27.7111 107.633 27.7159 107.609 27.7206C107.339 27.7715 107.074 27.6258 106.819 27.4831C106.628 27.377 106.433 27.2689 106.283 27.2771C106.127 27.2871 105.941 27.4189 105.76 27.5487C105.527 27.7187 105.281 27.8924 105.013 27.8724C104.741 27.8504 104.523 27.6416 104.315 27.4386C104.159 27.2856 103.996 27.1287 103.845 27.0956C103.694 27.0626 103.481 27.1424 103.274 27.2204C103.002 27.3231 102.721 27.4286 102.465 27.3377C102.208 27.2467 102.053 26.9882 101.904 26.7403C101.79 26.551 101.675 26.356 101.537 26.2865C101.4 26.217 101.175 26.2402 100.955 26.2616C100.665 26.2904 100.365 26.3191 100.14 26.1669C99.9142 26.0146 99.8314 25.7257 99.7515 25.4454C99.6907 25.2323 99.6279 25.0135 99.5113 24.9114C99.3976 24.8084 99.1727 24.7741 98.9564 24.737C98.6693 24.6881 98.3697 24.6402 98.193 24.4334C98.0173 24.2295 98.0102 23.9284 98.0069 23.6387C98.0035 23.4162 97.9981 23.188 97.9132 23.0563C97.8301 22.9304 97.6235 22.8358 97.4284 22.7469C97.1616 22.6242 96.8851 22.5016 96.7669 22.2499C96.6515 22.0069 96.7219 21.7185 96.7923 21.4396C96.8454 21.224 96.9023 21.0007 96.8528 20.851C96.8033 20.7012 96.6246 20.5558 96.4535 20.4143C96.2308 20.2323 95.9985 20.0407 95.9502 19.7787C95.899 19.5081 96.044 19.243 96.1862 18.9883C96.2919 18.7968 96.3994 18.6015 96.3911 18.451C96.3809 18.2946 96.2491 18.1081 96.1202 17.9303C95.9502 17.6957 95.7765 17.4497 95.7961 17.1812C95.8177 16.9089 96.0259 16.69 96.2282 16.4825C96.3807 16.3267 96.5371 16.1632 96.5699 16.0118C96.6028 15.8603 96.5227 15.6472 96.4446 15.4398C96.3418 15.1671 96.236 14.8857 96.3265 14.629C96.417 14.3723 96.6748 14.2168 96.922 14.068C97.1109 13.9545 97.3054 13.839 97.3746 13.7012C97.4438 13.5633 97.4203 13.3378 97.3987 13.1182C97.3695 12.8275 97.3404 12.5272 97.4931 12.3042C97.6447 12.0784 97.933 11.9959 98.2127 11.9162C98.4254 11.8555 98.6438 11.793 98.7455 11.6763C98.8481 11.5625 98.882 11.3372 98.9188 11.1206C98.9672 10.833 99.0147 10.533 99.2208 10.3563C99.4241 10.1805 99.7247 10.1738 100.014 10.1708C100.236 10.1677 100.464 10.1627 100.595 10.0778C100.721 9.99474 100.815 9.7879 100.903 9.59254C101.025 9.32536 101.148 9.0486 101.396 8.93144C101.638 8.81617 101.926 8.88711 102.205 8.95801C102.42 9.01145 102.643 9.06875 102.792 9.01936C102.942 8.96998 103.087 8.7911 103.228 8.61989C103.409 8.39702 103.6 8.16459 103.861 8.11652C104.131 8.0656 104.396 8.21127 104.654 8.35307C104.845 8.45918 105.04 8.56722 105.19 8.55908C105.346 8.54903 105.532 8.41728 105.71 8.28838C105.944 8.11843 106.189 7.94467 106.457 7.96471C106.729 7.98669 106.948 8.1955 107.155 8.39853C107.311 8.55151 107.474 8.70836 107.625 8.74145C107.777 8.77455 107.992 8.69372 108.196 8.6167C108.468 8.514 108.749 8.40845 109.005 8.49942C109.262 8.5904 109.417 8.84887 109.567 9.09966C109.681 9.28896 109.796 9.48401 109.934 9.55351C110.072 9.623 110.297 9.59975 110.516 9.57839C110.806 9.5496 111.106 9.52083 111.331 9.67309C111.557 9.82534 111.64 10.1143 111.72 10.3946C111.78 10.6077 111.843 10.8265 111.96 10.9286C112.073 11.0315 112.298 11.0658 112.515 11.103C112.802 11.1518 113.101 11.1998 113.278 11.4066C113.454 11.6104 113.461 11.9116 113.464 12.2012C113.468 12.4237 113.473 12.652 113.558 12.7837C113.641 12.9096 113.848 13.0042 114.043 13.0931C114.31 13.2157 114.586 13.3384 114.703 13.5872C114.819 13.8302 114.748 14.1186 114.678 14.3975C114.625 14.6131 114.568 14.8364 114.617 14.9861C114.667 15.1359 114.846 15.2813 115.017 15.4228C115.239 15.6048 115.472 15.7964 115.52 16.0584C115.571 16.329 115.426 16.5941 115.285 16.8517C115.179 17.0431 115.069 17.2394 115.08 17.389C115.09 17.5454 115.222 17.7319 115.352 17.9126C115.522 18.1471 115.696 18.3932 115.676 18.6617C115.654 18.9339 115.446 19.1529 115.244 19.3604C115.091 19.5162 114.935 19.6797 114.902 19.8311C114.869 19.9825 114.949 20.1957 115.027 20.4031C115.13 20.6758 115.236 20.9571 115.146 21.2138C115.055 21.4706 114.797 21.6261 114.547 21.7758C114.358 21.8893 114.164 22.0048 114.095 22.1426C114.025 22.2805 114.049 22.506 114.07 22.7256C114.1 23.0163 114.129 23.3166 113.977 23.5424C113.824 23.7654 113.537 23.8508 113.257 23.9304C113.045 23.9911 112.826 24.0537 112.725 24.1704C112.622 24.2842 112.588 24.5095 112.551 24.7261C112.503 25.0136 112.455 25.3137 112.249 25.4904C112.046 25.6662 111.745 25.6729 111.456 25.6758C111.234 25.679 111.009 25.683 110.875 25.7689C110.749 25.8519 110.655 26.0588 110.567 26.2541C110.445 26.5213 110.323 26.7981 110.072 26.9162C109.833 27.0334 109.541 26.9605 109.263 26.8896C109.047 26.8362 108.824 26.7789 108.675 26.8283C108.526 26.8777 108.381 27.0565 108.24 27.2277C108.076 27.419 107.907 27.6285 107.68 27.7035ZM106.082 27.0079C106.14 26.9889 106.199 26.9757 106.261 26.9711C106.499 26.9565 106.737 27.0886 106.964 27.215C107.171 27.3317 107.389 27.4513 107.551 27.4202C107.706 27.3881 107.859 27.2035 108.008 27.0199C108.176 26.8142 108.352 26.6028 108.585 26.5259C108.817 26.449 109.085 26.517 109.342 26.5792C109.568 26.6355 109.804 26.6948 109.948 26.6281C110.096 26.5566 110.197 26.3316 110.297 26.1133C110.404 25.8767 110.516 25.6287 110.716 25.4989C110.92 25.3643 111.193 25.3604 111.456 25.3565C111.69 25.3524 111.935 25.3484 112.056 25.2443C112.18 25.1363 112.221 24.8929 112.258 24.6599C112.3 24.4002 112.343 24.1337 112.503 23.953C112.663 23.7722 112.925 23.6954 113.178 23.6243C113.405 23.5588 113.641 23.4905 113.731 23.3585C113.824 23.2226 113.797 22.9789 113.774 22.7439C113.747 22.481 113.722 22.2114 113.829 21.9941C113.935 21.7767 114.17 21.6384 114.396 21.503C114.599 21.3818 114.808 21.255 114.863 21.1026C114.915 20.9513 114.83 20.7208 114.747 20.499C114.652 20.2523 114.558 19.9959 114.607 19.7592C114.657 19.5225 114.845 19.3293 115.028 19.141C115.195 18.9708 115.365 18.793 115.375 18.63C115.386 18.4699 115.244 18.2709 115.107 18.0796C114.954 17.8653 114.794 17.6432 114.78 17.3986C114.765 17.1607 114.897 16.9223 115.023 16.6955C115.139 16.4877 115.258 16.2695 115.227 16.1073C115.198 15.9509 115.01 15.7987 114.827 15.6485C114.621 15.48 114.41 15.3039 114.333 15.0706C114.256 14.8373 114.323 14.569 114.385 14.3121C114.441 14.086 114.5 13.8493 114.433 13.7052C114.362 13.5564 114.137 13.4549 113.919 13.3545C113.682 13.2473 113.435 13.1343 113.305 12.9344C113.17 12.7297 113.166 12.4563 113.162 12.1926C113.157 11.9576 113.153 11.713 113.049 11.5909C112.941 11.4669 112.698 11.4258 112.465 11.3876C112.206 11.3456 111.94 11.3025 111.759 11.1418C111.579 10.981 111.502 10.719 111.43 10.4646C111.365 10.2371 111.296 10.001 111.164 9.91039C111.029 9.82076 110.785 9.84395 110.551 9.86717C110.288 9.89318 110.019 9.91821 109.802 9.81106C109.588 9.70296 109.447 9.4685 109.311 9.24174C109.19 9.03899 109.063 8.82855 108.911 8.7734C108.76 8.72113 108.53 8.8067 108.309 8.88942C108.061 8.98069 107.807 9.0777 107.57 9.02802C107.334 8.97835 107.141 8.78976 106.953 8.60598C106.782 8.43856 106.605 8.26729 106.442 8.25717C106.282 8.24611 106.084 8.38836 105.893 8.52489C105.679 8.67861 105.458 8.83805 105.214 8.85165C104.976 8.86623 104.738 8.73408 104.511 8.60772C104.304 8.49101 104.086 8.37139 103.924 8.40251C103.768 8.43174 103.616 8.61922 103.467 8.80288C103.299 9.00853 103.124 9.22279 102.891 9.29972C102.659 9.37665 102.391 9.30866 102.133 9.24358C101.907 9.18722 101.671 9.12796 101.527 9.19463C101.379 9.26608 101.278 9.49113 101.178 9.70946C101.071 9.946 100.959 10.194 100.759 10.3238C100.555 10.4584 100.282 10.4623 100.019 10.4662C99.7845 10.4703 99.5404 10.4743 99.4186 10.5784C99.2949 10.6864 99.2542 10.9299 99.2165 11.1628C99.1748 11.4226 99.1322 11.689 98.972 11.8698C98.8118 12.0505 98.5493 12.1245 98.2964 12.1985C98.0694 12.2639 97.8338 12.3322 97.7436 12.4643C97.6543 12.5992 97.6778 12.8438 97.7013 13.0789C97.7276 13.3417 97.7529 13.6113 97.6462 13.8286C97.5396 14.046 97.3048 14.1843 97.0786 14.3198C96.8764 14.4409 96.6665 14.5678 96.6116 14.7201C96.5596 14.8714 96.6454 15.1019 96.7282 15.3237C96.8197 15.5714 96.9168 15.8268 96.8676 16.0635C96.8183 16.3003 96.6303 16.4934 96.4471 16.6817C96.2802 16.8519 96.1095 17.0297 96.0996 17.1927C96.0887 17.3529 96.231 17.5518 96.3675 17.7431C96.5213 17.9575 96.6807 18.1795 96.6946 18.4241C96.7095 18.662 96.5779 18.9004 96.4521 19.1273C96.3358 19.335 96.2167 19.5533 96.248 19.7155C96.2774 19.8719 96.4647 20.024 96.6483 20.1742C96.8538 20.3427 97.065 20.5189 97.1421 20.7522C97.2192 20.9855 97.1517 21.2538 97.0899 21.5106C97.034 21.7367 96.9751 21.9734 97.0419 22.1175C97.1134 22.2664 97.3391 22.3707 97.5563 22.4682C97.7925 22.5755 98.0403 22.6885 98.1701 22.8884C98.3047 23.0931 98.3089 23.3664 98.3132 23.6301C98.3176 23.8651 98.3219 24.1097 98.426 24.2318C98.534 24.3559 98.777 24.3969 99.0096 24.4351C99.269 24.4772 99.535 24.5202 99.7156 24.681C99.8963 24.8417 99.9733 25.1038 100.045 25.3581C100.11 25.5856 100.179 25.8218 100.311 25.9123C100.446 26.0048 100.69 25.9788 100.924 25.9556C101.187 25.9295 101.456 25.9045 101.673 26.0117C101.89 26.1188 102.028 26.3542 102.164 26.581C102.285 26.7837 102.412 26.9942 102.564 27.0493C102.715 27.1016 102.945 27.016 103.166 26.9333C103.413 26.8392 103.668 26.745 103.905 26.7947C104.141 26.8444 104.334 27.033 104.522 27.2167C104.692 27.3842 104.87 27.5554 105.033 27.5656C105.193 27.5766 105.388 27.4353 105.582 27.2978C105.742 27.1842 105.907 27.0658 106.082 27.0079Z" fill="#4A5161"/>
<path d="M101.857 22.3147C101.747 22.3508 101.62 22.3226 101.538 22.2283C101.165 21.8148 100.841 21.3534 100.575 20.8567C98.9396 17.7902 99.8962 14.078 102.703 12.5785C105.51 11.079 109.122 12.3546 110.757 15.4211C110.851 15.5979 110.94 15.7794 111.016 15.9619C111.082 16.1155 111.01 16.2927 110.857 16.3593C110.7 16.4241 110.527 16.3535 110.46 16.1998C110.39 16.0346 110.309 15.8694 110.224 15.7061C108.747 12.9355 105.503 11.7714 102.988 13.1136C100.477 14.4549 99.6317 17.8011 101.108 20.5717C101.351 21.0251 101.647 21.448 101.984 21.8222C102.096 21.9482 102.089 22.139 101.963 22.2508C101.935 22.2824 101.897 22.3014 101.857 22.3147Z" fill="white"/>
<path d="M101.905 22.459C101.735 22.515 101.547 22.4655 101.426 22.3328C101.044 21.9096 100.713 21.4376 100.443 20.9294C99.6357 19.4135 99.4149 17.6942 99.8296 16.094C100.242 14.4879 101.238 13.1907 102.635 12.4481C104.03 11.7026 105.659 11.5957 107.222 12.1493C108.781 12.7009 110.085 13.8387 110.892 15.3547C110.986 15.5343 111.077 15.7216 111.157 15.906C111.255 16.1355 111.149 16.4037 110.917 16.5027C110.68 16.6036 110.421 16.4944 110.321 16.262C110.253 16.1026 110.177 15.9393 110.093 15.7817C108.657 13.087 105.502 11.951 103.063 13.2522C100.624 14.5534 99.8091 17.8067 101.246 20.5043C101.482 20.95 101.771 21.3595 102.102 21.726C102.269 21.9135 102.255 22.1993 102.072 22.3684C102.021 22.4076 101.965 22.439 101.905 22.459ZM103.591 12.362C103.312 12.4541 103.038 12.5703 102.776 12.7113C101.456 13.4158 100.514 14.6442 100.121 16.1668C99.728 17.6962 99.9384 19.3358 100.71 20.7836C100.97 21.2697 101.286 21.7243 101.652 22.1273C101.706 22.186 101.805 22.1949 101.865 22.1366C101.926 22.0812 101.932 21.9834 101.874 21.9228C101.527 21.539 101.225 21.1055 100.976 20.6415C99.4588 17.7979 100.331 14.3597 102.915 12.9784C105.501 11.6 108.839 12.7903 110.353 15.6349C110.443 15.8001 110.522 15.972 110.594 16.1401C110.626 16.2188 110.713 16.2508 110.795 16.2203C110.832 16.2051 110.861 16.1764 110.873 16.1372C110.889 16.0998 110.889 16.0586 110.873 16.0221C110.799 15.8454 110.711 15.6667 110.62 15.4957C109.847 14.0451 108.602 12.9583 107.115 12.4338C105.933 12.0128 104.709 11.9925 103.591 12.362Z" fill="#263238"/>
<path d="M134.829 57.4C134.829 57.4 145.557 50.6724 148.053 46.0138C148.053 46.0138 148.807 51.8347 151.676 54.0813C154.544 56.328 164.707 61.4224 166.557 62.514C168.406 63.6056 172.108 66.3881 172.841 66.0404C173.577 65.6918 174.541 61.5394 174.893 60.3562C175.246 59.1758 176.211 58.1796 175.864 56.4858C175.517 54.7891 174.526 55.0113 174.303 55.6186C174.079 56.2259 172.595 58.3808 171.478 59.1752C170.36 59.9695 169.161 60.8642 169.161 60.8642C169.161 60.8642 164.778 57.7314 160.892 53.69C157.007 49.6486 151.635 41.4211 150.267 39.8477C148.897 38.2782 147.558 38.082 146.121 38.5569C144.684 39.0318 140.086 40.5515 133.213 46.7621C126.34 52.9727 127.77 56.3339 128.95 57.3303C130.129 58.3305 132.395 58.754 134.829 57.4Z" fill="#4592D0"/>
<path d="M172.865 66.1986C172.267 66.3961 170.695 65.4013 168.386 63.8739C167.676 63.4026 167.002 62.9574 166.48 62.6507C165.958 62.3441 164.771 61.714 163.268 60.917C159.439 58.8888 153.651 55.8243 151.586 54.2065C149.126 52.2815 148.209 47.8756 147.97 46.4689C145.149 51.0785 135.336 57.2643 134.911 57.5325C134.908 57.5334 134.905 57.5344 134.903 57.5382C132.422 58.9141 130.079 58.4875 128.854 57.4545C128.549 57.1974 127.839 56.4481 127.813 55.0382C127.785 53.4279 128.682 50.665 133.114 46.6571C140.011 40.4225 144.575 38.9143 146.075 38.4185C147.739 37.8686 149.11 38.294 150.383 39.7549C150.844 40.2829 151.743 41.5449 152.883 43.1425C155.218 46.4184 158.418 50.9007 161.003 53.5923C164.531 57.2633 168.518 60.2137 169.161 60.6818C169.46 60.4584 170.459 59.7193 171.391 59.0567C172.487 58.2758 173.953 56.1332 174.162 55.569C174.29 55.2232 174.615 55.0008 174.955 55.0259C175.19 55.0439 175.761 55.2193 176.015 56.4611C176.269 57.7001 175.859 58.5638 175.461 59.3949C175.298 59.7397 175.143 60.0624 175.04 60.4063C174.974 60.6296 174.883 60.963 174.777 61.3559C174.139 63.736 173.513 65.8947 172.907 66.1814C172.893 66.1891 172.879 66.1938 172.865 66.1986ZM148.006 45.8725C148.029 45.8649 148.057 45.8621 148.081 45.867C148.145 45.8778 148.194 45.9316 148.203 45.9959C148.21 46.0544 148.984 51.7823 151.767 53.9644C153.811 55.5668 159.584 58.6236 163.405 60.648C164.913 61.4469 166.106 62.0779 166.633 62.3894C167.16 62.7009 167.837 63.148 168.551 63.6212C170.056 64.6158 172.335 66.1182 172.778 65.9077C173.31 65.6553 174.104 62.6963 174.486 61.2763C174.594 60.8796 174.684 60.5433 174.75 60.32C174.859 59.955 175.027 59.6055 175.187 59.2684C175.564 58.4794 175.951 57.6645 175.718 56.5244C175.569 55.8037 175.275 55.3578 174.931 55.3308C174.728 55.3148 174.527 55.458 174.446 55.6764C174.222 56.2808 172.726 58.4779 171.568 59.3047C170.464 60.0914 169.266 60.9823 169.254 60.9928C169.2 61.033 169.13 61.0337 169.076 60.9942C169.031 60.9643 164.637 57.8065 160.786 53.8017C158.183 51.0965 154.979 46.5999 152.636 43.3201C151.501 41.7302 150.605 40.4739 150.153 39.9555C148.952 38.5793 147.725 38.1927 146.167 38.7075C144.681 39.1985 140.164 40.6916 133.313 46.8821C128.963 50.8116 128.083 53.4826 128.111 55.0325C128.133 56.3157 128.771 56.99 129.045 57.222C130.19 58.1886 132.394 58.5783 134.749 57.273C134.991 57.1194 145.483 50.4888 147.919 45.9461C147.939 45.9107 147.972 45.8839 148.006 45.8725ZM134.83 57.4027L134.833 57.4018L134.83 57.4027Z" fill="#263238"/>
<path d="M175.866 56.4882C175.519 54.7915 174.528 55.0137 174.305 55.621C174.081 56.2283 172.597 58.3833 171.479 59.1776C170.362 59.9719 169.162 60.8667 169.162 60.8667C169.162 60.8667 165.748 58.4264 162.276 55.0759C161.781 57.0125 160.747 58.2617 159.95 58.9755C162.916 60.5704 165.679 61.9957 166.558 62.5164C168.408 63.608 172.11 66.3906 172.843 66.0429C173.579 65.6942 174.543 61.5419 174.895 60.3586C175.25 59.1773 176.216 58.1839 175.866 56.4882Z" fill="#FEDEA5"/>
<path d="M172.865 66.1983C172.267 66.3958 170.695 65.401 168.386 63.8735C167.676 63.4023 167.003 62.9571 166.481 62.6504C165.958 62.3438 164.768 61.7118 163.261 60.9128C162.24 60.3715 161.074 59.7569 159.879 59.1105C159.836 59.0864 159.806 59.045 159.8 58.9961C159.793 58.9472 159.812 58.8993 159.849 58.8649C160.618 58.173 161.641 56.9497 162.129 55.0409C162.144 54.9882 162.185 54.949 162.234 54.9329C162.287 54.9186 162.342 54.9322 162.38 54.9707C165.497 57.9758 168.599 60.2731 169.158 60.6825C169.457 60.459 170.456 59.7199 171.388 59.0574C172.484 58.2764 173.95 56.1339 174.159 55.5697C174.287 55.2239 174.612 55.0015 174.952 55.0265C175.187 55.0445 175.758 55.22 176.013 56.4618C176.266 57.7007 175.857 58.5644 175.459 59.3956C175.295 59.7403 175.141 60.063 175.037 60.407C174.971 60.6302 174.88 60.9636 174.774 61.3565C174.136 63.7367 173.511 65.8954 172.904 66.1821C172.894 66.1888 172.879 66.1935 172.865 66.1983ZM160.209 58.9437C161.341 59.5506 162.435 60.1314 163.404 60.6419C164.915 61.4427 166.108 62.0738 166.635 62.3852C167.162 62.6967 167.839 63.1439 168.553 63.6171C170.058 64.6116 172.337 66.1141 172.78 65.9036C173.312 65.6511 174.106 62.6922 174.488 61.2721C174.596 60.8755 174.686 60.5391 174.752 60.3159C174.861 59.9509 175.029 59.6013 175.189 59.2643C175.566 58.4753 175.953 57.6604 175.72 56.5203C175.571 55.7996 175.277 55.3536 174.933 55.3266C174.73 55.3106 174.529 55.4538 174.448 55.6722C174.224 56.2767 172.728 58.4738 171.57 59.3006C170.466 60.0873 169.269 60.9782 169.256 60.9887C169.202 61.0288 169.132 61.0295 169.078 60.99C169.045 60.966 165.739 58.5923 162.36 55.361C161.86 57.0818 160.952 58.2383 160.209 58.9437Z" fill="#263238"/>
<path d="M108.039 25.547C108.039 25.547 110.16 27.7308 110.58 28.5281C110.999 29.3255 110.179 30.1428 109.266 30.6779C108.353 31.213 106.624 31.1614 105.661 33.4283C104.699 35.6952 103.444 44.6111 103.276 45.9925C103.111 47.373 103.997 48.1728 105.446 47.3805C106.896 46.5882 109.222 39.7367 109.222 39.7367C109.222 39.7367 116.412 44.3028 117.485 45.4273C118.559 46.5548 119.089 48.8744 119.719 51.2414C120.345 53.6094 121.109 57.0979 124.119 59.1446C127.129 61.1912 131.805 60.5052 134.826 57.3981C137.845 54.2948 139.619 46.4374 136.981 44.3479C134.344 42.2544 129.968 42.2375 127.939 40.1C125.91 37.9625 125.861 36.426 125.001 33.8252C124.142 31.2244 122.459 28.0619 122.459 28.0619C122.459 28.0619 128.018 24.6273 134.693 21.3574C137.013 20.2198 134.581 17.963 132.993 17.8649C131.001 17.7405 123.481 21.1333 121.291 21.6336C118.129 22.359 116.776 23.5122 116.238 24.2365C115.699 24.9607 115.021 25.9645 114.225 26.1509C113.429 26.3373 111.334 22.8157 111.334 22.8157C111.334 22.8157 109.861 25.1778 108.039 25.547Z" fill="#F37630"/>
<path d="M130.978 59.9822C128.567 60.7791 125.973 60.5885 124.036 59.2703C121.145 57.3056 120.299 54.0585 119.68 51.6848L119.412 50.6616C118.857 48.5384 118.33 46.5305 117.378 45.5319C116.42 44.5228 110.378 40.651 109.307 39.9666C108.918 41.0855 106.888 46.766 105.521 47.5116C104.8 47.9034 104.149 47.9493 103.692 47.6371C103.243 47.3316 103.037 46.7258 103.128 45.9704C103.273 44.7596 104.54 35.6798 105.522 33.3649C106.267 31.6075 107.448 31.198 108.395 30.8692C108.693 30.7675 108.97 30.6697 109.189 30.5428C109.597 30.3025 110.895 29.455 110.445 28.5943C110.041 27.8267 107.951 25.6679 107.928 25.6468C107.89 25.6083 107.876 25.5488 107.891 25.4961C107.908 25.4424 107.949 25.4032 108.006 25.3909C109.744 25.0369 111.192 22.7533 111.207 22.7323C111.234 22.6882 111.286 22.6616 111.337 22.6608C111.388 22.6628 111.438 22.6879 111.466 22.7331C112.468 24.4146 113.763 26.0952 114.193 25.9978C114.865 25.8427 115.483 25.0026 115.981 24.33L116.12 24.1406C116.617 23.4747 117.943 22.2409 121.259 21.4805C122.08 21.2923 123.711 20.6732 125.438 20.0161C128.39 18.8968 131.735 17.6282 133.004 17.7042C134.071 17.77 135.559 18.7827 135.775 19.8681C135.868 20.3325 135.767 20.992 134.76 21.4846C128.702 24.4515 123.506 27.5938 122.659 28.1099C122.981 28.7257 124.388 31.4779 125.145 33.7705C125.334 34.3407 125.48 34.8514 125.624 35.3438C126.126 37.0851 126.488 38.3455 128.052 39.9886C129.083 41.0756 130.742 41.6007 132.498 42.1578C134.119 42.6732 135.792 43.2032 137.076 44.2229C137.844 44.8315 138.302 45.9455 138.399 47.4438C138.615 50.8001 137.063 55.3131 134.935 57.4986C133.808 58.6698 132.426 59.5035 130.978 59.9822ZM109.178 39.5941C109.221 39.5798 109.268 39.5867 109.307 39.6089C109.601 39.7959 116.523 44.198 117.597 45.3255C118.603 46.3827 119.138 48.4262 119.704 50.5906L119.972 51.6138C120.578 53.9404 121.41 57.1223 124.206 59.0225C127.187 61.0499 131.806 60.2898 134.719 57.2984C136.761 55.2018 138.306 50.7042 138.097 47.4764C138.004 46.0663 137.587 45.0282 136.888 44.4736C135.648 43.4904 133.999 42.9682 132.407 42.4625C130.613 41.8928 128.917 41.3541 127.832 40.2113C126.219 38.5144 125.828 37.158 125.334 35.4398C125.191 34.9502 125.045 34.4424 124.859 33.8779C124.013 31.3175 122.344 28.1693 122.328 28.1396C122.292 28.0685 122.314 27.9813 122.383 27.9393C122.439 27.905 128.024 24.4647 134.63 21.2272C135.3 20.9004 135.587 20.4668 135.484 19.9419C135.295 18.9948 133.931 18.0812 132.99 18.0216C131.786 17.9468 128.328 19.2591 125.55 20.3147C123.737 21.0032 122.171 21.5975 121.329 21.7895C118.105 22.5291 116.836 23.7027 116.362 24.3351L116.223 24.5216C115.697 25.2354 115.044 26.1223 114.262 26.3039C113.478 26.4865 111.873 23.9946 111.33 23.1038C110.944 23.6626 109.779 25.201 108.325 25.6336C108.853 26.1877 110.355 27.7836 110.71 28.4618C111.099 29.2025 110.589 30.0803 109.339 30.8128C109.095 30.9539 108.801 31.0575 108.493 31.1659C107.6 31.4737 106.491 31.8595 105.797 33.4943C104.828 35.7795 103.571 44.8114 103.424 46.0164C103.347 46.652 103.504 47.156 103.857 47.394C104.218 47.6388 104.756 47.5887 105.372 47.2541C106.48 46.6515 108.279 42.0444 109.077 39.6945C109.098 39.6427 109.132 39.6093 109.178 39.5941Z" fill="#263238"/>
<path d="M124.588 20.5081C124.392 20.5822 124.2 20.6555 124.012 20.7239C124.375 21.9584 125.198 23.9165 126.962 25.4355C127.145 25.3335 127.336 25.2257 127.526 25.118C125.758 23.6737 124.94 21.7013 124.588 20.5081Z" fill="#263238"/>
<path d="M127.144 39.1512C127.018 38.9849 126.903 38.8186 126.798 38.6552C122.77 41.06 120.024 45.0982 118.645 47.5125C118.736 47.7602 118.821 48.0165 118.907 48.2853C120.145 46.0135 122.931 41.6455 127.144 39.1512Z" fill="#263238"/>
<path d="M116.667 44.7385C116.854 44.881 117.022 45.0139 117.159 45.1285C118.031 43.4184 120.418 39.5948 125.66 36.0028C125.6 35.8022 125.54 35.592 125.48 35.3818C120.082 39.0125 117.616 42.8848 116.667 44.7385Z" fill="#263238"/>
<path d="M109.221 36.551C110.216 36.0977 114.888 33.7229 120.51 26.7372C121.433 27.6493 122.212 28.2512 122.281 28.3051C122.362 28.3677 122.47 28.3834 122.562 28.353C122.576 28.3483 122.592 28.3397 122.606 28.3321C122.518 28.163 122.466 28.065 122.466 28.065C122.466 28.065 122.556 28.0097 122.723 27.9066C122.703 27.8749 122.681 27.847 122.651 27.822C122.616 27.795 119.374 25.295 118.267 22.68C118.076 22.7752 117.894 22.8734 117.732 22.9717C117.955 23.4797 118.245 23.9813 118.574 24.4571C114.475 30.1885 109.404 32.7625 108.01 33.389C107.619 32.6877 107.225 32.1407 106.914 31.758C106.758 31.8765 106.605 32.0102 106.457 32.1709C106.724 32.5074 107.062 32.9803 107.403 33.577C106.926 33.281 106.401 33.0904 105.888 32.966C105.811 33.1096 105.733 33.2599 105.664 33.4266C105.65 33.4601 105.636 33.4965 105.622 33.53C106.578 33.7412 107.588 34.2029 108.157 35.1743C108.357 35.6928 108.533 36.264 108.665 36.8849C108.002 36.2287 106.832 35.4174 105.083 35.3821C105.038 35.5728 104.992 35.7731 104.948 35.9762C107.603 35.955 108.748 37.896 108.814 38.0113C108.828 38.0324 108.843 38.0497 108.861 38.0661C108.898 38.399 108.921 38.7395 108.927 39.0953C108.159 38.5347 106.58 37.6444 104.563 37.8604C104.526 38.0646 104.485 38.2697 104.448 38.4767C106.815 38.1257 108.517 39.493 108.922 39.8606C108.916 40.1215 108.913 40.3746 108.91 40.6249C109.109 40.0799 109.227 39.7312 109.227 39.7312C109.227 39.7312 109.336 39.8006 109.525 39.9201C109.527 39.8587 109.527 39.8012 109.529 39.7398C109.566 38.568 109.44 37.5012 109.221 36.551ZM118.943 24.9742C119.307 25.4511 119.697 25.8973 120.082 26.3004C114.739 32.9542 110.176 35.4176 109.064 35.9511C108.985 35.6737 108.898 35.4087 108.807 35.1543C108.805 35.1169 108.794 35.0756 108.776 35.0401C108.768 35.0266 108.761 35.0132 108.752 34.9968C108.606 34.6137 108.45 34.2565 108.288 33.9299C109.778 33.249 114.826 30.6509 118.943 24.9742Z" fill="#263238"/>
<path d="M129.464 41.1857C129.26 41.0805 129.065 40.9724 128.879 40.852C124.351 43.9331 121.343 48.0866 119.647 50.9602C119.672 51.0542 119.697 51.1483 119.722 51.2424C119.767 51.419 119.816 51.6042 119.864 51.7895C121.484 48.9281 124.594 44.4086 129.464 41.1857Z" fill="#263238"/>
<path d="M124.795 33.2216C124.727 33.0334 124.654 32.8433 124.582 32.6532C117.337 35.482 114.954 40.4709 114.188 42.9859C114.365 43.1063 114.538 43.2248 114.71 43.3405C115.365 41.0313 117.575 36.0457 124.795 33.2216Z" fill="#263238"/>
<path d="M128.372 19.0909C128.175 19.1622 127.979 19.2335 127.78 19.3058C128.015 20.5859 128.575 22.2727 129.868 23.8391C130.049 23.7409 130.234 23.6446 130.42 23.5445C129.13 22.0127 128.592 20.3278 128.372 19.0909Z" fill="#263238"/>
<path d="M120.526 21.831C121.223 23.2238 122.453 25.2868 124.277 26.9777C124.451 26.8756 124.635 26.7669 124.827 26.6553C123.06 25.0605 121.839 23.0522 121.131 21.6727C120.925 21.7248 120.722 21.776 120.526 21.831Z" fill="#263238"/>
<path d="M123.506 30.1686C123.416 29.9746 123.327 29.7931 123.244 29.6192C115.226 33.3874 112.207 38.3243 111.121 40.9581C111.292 41.0709 111.47 41.1846 111.653 41.3061C112.682 38.8159 115.622 33.8892 123.506 30.1686Z" fill="#263238"/>
<path d="M134.83 57.3999C137.328 54.833 138.971 49.0121 137.97 45.8959C137.756 45.315 137.444 44.8335 137.023 44.4965C136.668 44.2115 136.282 43.9235 135.88 43.6316C134.585 42.9351 133.07 42.5188 131.654 42.0539C126.106 46.5425 122.62 53.0364 121.163 55.5942C121.805 56.9188 122.716 58.1895 124.123 59.1464C127.132 61.193 131.808 60.507 134.83 57.3999Z" fill="#4592D0"/>
<path d="M130.978 59.9824C128.567 60.7792 125.973 60.5887 124.036 59.2705C122.77 58.411 121.783 57.2291 121.025 55.6587C121.004 55.6145 121.005 55.5598 121.029 55.5168L121.301 55.0372C122.926 52.1615 126.305 46.1823 131.557 41.9353C131.598 41.9028 131.648 41.8925 131.699 41.9108C131.96 41.997 132.223 42.0794 132.49 42.1637C133.666 42.5386 134.884 42.9252 135.95 43.4992C136.411 43.8325 136.788 44.1138 137.115 44.3795C137.54 44.7214 137.875 45.2144 138.108 45.8433C139.115 48.9768 137.511 54.8582 134.935 57.5083C133.808 58.6699 132.426 59.5037 130.978 59.9824ZM121.333 55.5983C122.063 57.0824 123.004 58.2026 124.207 59.0188C127.188 61.0462 131.808 60.2862 134.721 57.2947C137.236 54.7096 138.801 48.9816 137.825 45.9402C137.613 45.368 137.31 44.922 136.928 44.6139C136.603 44.3539 136.233 44.0736 135.792 43.7529C134.765 43.201 133.564 42.8183 132.4 42.4492C132.16 42.3717 131.922 42.2971 131.686 42.2186C126.516 46.4256 123.175 52.3378 121.569 55.1819L121.333 55.5983Z" fill="#4592D0"/>
<path d="M101.875 21.1332C101.753 21.1798 101.64 21.2427 101.536 21.3248C100.696 21.9762 100.785 23.4994 101.737 24.7281C102.685 25.9578 104.134 26.4276 104.975 25.7791C105.153 25.6406 105.286 25.4655 105.381 25.2616L101.875 21.1332Z" fill="white"/>
<path d="M104.613 26.1392C104.242 26.2618 103.808 26.2517 103.348 26.1035C102.709 25.8962 102.093 25.4416 101.614 24.8205C101.136 24.2023 100.853 23.4908 100.812 22.8174C100.77 22.122 100.995 21.5492 101.442 21.2035C101.556 21.1146 101.682 21.0441 101.818 20.9927C101.879 20.9728 101.947 20.9855 101.989 21.0355L105.491 25.1619C105.529 25.2071 105.537 25.2714 105.513 25.3241C105.403 25.5587 105.253 25.7519 105.065 25.8971C104.928 26.0031 104.777 26.0851 104.613 26.1392ZM101.833 21.3169C101.759 21.3541 101.693 21.3951 101.63 21.4448C101.265 21.7284 101.083 22.2102 101.118 22.7992C101.154 23.4102 101.418 24.0642 101.859 24.6343C102.299 25.2044 102.865 25.6244 103.446 25.8123C104.01 25.9934 104.521 25.9395 104.884 25.6568C105.01 25.5574 105.119 25.4321 105.202 25.2799L101.833 21.3169Z" fill="#263238"/>
<path d="M101.875 21.1336C101.753 21.1802 101.64 21.2431 101.536 21.3253C101.439 21.3988 101.357 21.4868 101.287 21.5834L104.923 25.8158C104.942 25.8034 104.961 25.7939 104.978 25.7786C105.155 25.6401 105.289 25.465 105.384 25.2611L101.875 21.1336Z" fill="white"/>
<path d="M104.982 25.9461C104.922 25.966 104.843 25.96 104.805 25.9119L101.168 21.6795C101.122 21.6247 101.118 21.5461 101.163 21.4896C101.247 21.3787 101.34 21.2811 101.441 21.2028C101.555 21.114 101.682 21.0434 101.818 20.9921C101.878 20.9721 101.946 20.9848 101.988 21.0348L105.491 25.1613C105.528 25.2065 105.537 25.2708 105.513 25.3235C105.402 25.5581 105.252 25.7513 105.064 25.8965C105.049 25.9079 105.036 25.9156 105.02 25.927C105.007 25.9346 104.996 25.9413 104.982 25.9461ZM101.483 21.5789L104.94 25.6055C105.045 25.5099 105.129 25.4057 105.196 25.2812L101.83 21.3172C101.756 21.3544 101.69 21.3954 101.626 21.4451C101.576 21.4843 101.527 21.5292 101.483 21.5789Z" fill="#263238"/>
<path d="M109.577 15.3775C109.654 15.2723 109.743 15.1757 109.848 15.0964C110.688 14.4451 112.137 14.9149 113.085 16.1445C114.037 17.3732 114.126 18.8964 113.289 19.5469C113.111 19.6853 112.906 19.7691 112.687 19.8096L109.577 15.3775Z" fill="white"/>
<path d="M112.934 19.9032C112.862 19.9269 112.788 19.9449 112.711 19.9609C112.653 19.9704 112.595 19.9481 112.56 19.8991L109.45 15.467C109.414 15.4151 109.413 15.3451 109.449 15.2915C109.534 15.1709 109.637 15.0667 109.751 14.9779C110.655 14.2798 112.203 14.7585 113.202 16.0545C113.68 16.6727 113.966 17.3833 114.004 18.0576C114.046 18.753 113.824 19.3249 113.377 19.6706C113.247 19.7709 113.101 19.8481 112.934 19.9032ZM112.749 19.6417C112.916 19.5991 113.065 19.5276 113.191 19.4283C113.557 19.1447 113.739 18.6629 113.703 18.0739C113.666 17.46 113.403 16.8089 112.963 16.2388C112.066 15.0784 110.707 14.6204 109.935 15.2173C109.872 15.267 109.813 15.3214 109.76 15.3836L112.749 19.6417Z" fill="#263238"/>
<path d="M112.934 19.9035C112.862 19.9273 112.789 19.9453 112.711 19.9613C112.654 19.9707 112.595 19.9485 112.56 19.8995L109.45 15.4674C109.414 15.4155 109.413 15.3455 109.45 15.2919C109.534 15.1713 109.637 15.0671 109.751 14.9783C109.852 14.9 109.967 14.8332 110.097 14.7809C110.164 14.7523 110.238 14.7756 110.28 14.8352L113.457 19.4209C113.501 19.4863 113.491 19.5725 113.431 19.6213C113.404 19.6461 113.392 19.6595 113.376 19.6681C113.247 19.7712 113.101 19.8484 112.934 19.9035ZM112.749 19.6421C112.891 19.608 113.015 19.5509 113.127 19.4755L110.104 15.1108C110.044 15.1432 109.986 15.1785 109.935 15.2177C109.872 15.2673 109.813 15.3218 109.761 15.384L112.749 19.6421Z" fill="#263238"/>
<path d="M115.552 25.1435C115.158 25.6189 114.716 26.0366 114.23 26.1491C113.434 26.3355 111.34 22.8139 111.34 22.8139C111.34 22.8139 109.863 25.1741 108.04 25.5432C108.04 25.5432 110.162 27.7271 110.581 28.5244C110.922 29.169 110.448 29.8273 109.772 30.3382C110.493 31.2948 112.497 33.367 115.345 31.5856C117.834 30.0314 116.573 26.921 115.552 25.1435Z" fill="#FEDEA5"/>
<path d="M114.317 32.2471C111.957 33.0269 110.304 31.3049 109.646 30.4329C109.623 30.3993 109.613 30.3609 109.616 30.3216C109.622 30.2813 109.642 30.2459 109.676 30.222C110.109 29.8935 110.785 29.2484 110.443 28.598C110.039 27.8304 107.949 25.6717 107.926 25.6505C107.887 25.612 107.874 25.5525 107.889 25.4998C107.906 25.4461 107.947 25.407 108.004 25.3947C109.742 25.0406 111.19 22.757 111.205 22.736C111.232 22.692 111.284 22.6653 111.334 22.6645C111.386 22.6666 111.436 22.6917 111.464 22.7368C112.466 24.4183 113.761 26.0989 114.191 26.0015C114.566 25.9126 114.963 25.6089 115.43 25.0455C115.462 25.0063 115.51 24.9873 115.559 24.9903C115.607 24.9933 115.652 25.0232 115.676 25.0664C116.699 26.8497 118.028 30.0811 115.416 31.7145C115.037 31.9579 114.67 32.1303 114.317 32.2471ZM109.982 30.3669C110.751 31.3361 112.638 33.0991 115.261 31.4589C117.573 30.0144 116.477 27.1242 115.527 25.4064C115.21 25.7669 114.769 26.1808 114.263 26.2971C113.478 26.4797 111.874 23.9878 111.331 23.097C110.945 23.6558 109.78 25.1942 108.326 25.6268C108.853 26.1809 110.356 27.7768 110.711 28.455C111.028 29.0564 110.766 29.7307 109.982 30.3669Z" fill="#FEDEA5"/>
<path d="M112.668 24.7993C112.339 24.3619 112.023 23.8977 111.782 23.5267C111.616 23.3229 111.452 23.1056 111.29 22.8874C111.037 23.2683 109.681 25.2117 108.034 25.5449C108.034 25.5449 108.751 26.2857 109.434 27.0599C110.179 27.0374 111.184 26.8776 111.806 26.2409C112.199 25.8393 112.474 25.3108 112.668 24.7993Z" fill="#263238"/>
<path d="M110.843 26.9834C110.366 27.1411 109.861 27.196 109.442 27.21C109.398 27.2118 109.353 27.1915 109.323 27.1598C108.65 26.3952 107.934 25.6573 107.928 25.6496C107.89 25.6111 107.877 25.5516 107.891 25.4989C107.909 25.4453 107.95 25.4061 108.006 25.3938C109.59 25.0747 110.914 23.1772 111.166 22.8002C111.193 22.759 111.239 22.7343 111.29 22.7335C111.341 22.7327 111.387 22.7558 111.415 22.7943C111.584 23.0259 111.748 23.2403 111.902 23.4259C112.213 23.9045 112.516 24.3409 112.789 24.7014C112.821 24.7418 112.827 24.7974 112.811 24.8473C112.573 25.4756 112.273 25.9772 111.921 26.3395C111.619 26.6502 111.239 26.8523 110.843 26.9834ZM109.504 26.9052C110.208 26.8768 111.133 26.7148 111.7 26.1345C112.009 25.8152 112.278 25.3749 112.494 24.8242C112.164 24.3839 111.856 23.9235 111.653 23.6102C111.542 23.4775 111.42 23.3198 111.294 23.1506C110.88 23.7382 109.738 25.2114 108.324 25.6307C108.575 25.8895 109.046 26.3888 109.504 26.9052Z" fill="#263238"/>
<path d="M101.737 20.1403C101.737 20.1403 104.115 24.0349 105.187 24.9264C106.261 25.8208 109.227 26.3194 110.466 26.0664C111.706 25.8133 112.059 24.0575 112.366 22.6305C112.672 21.2035 112.556 20.1492 111.766 18.6947C110.973 17.2411 109.249 15.0825 108.106 13.9779C107.366 13.261 104.931 13.0787 103.128 14.2208C101.325 15.363 100.643 18.0067 101.737 20.1403Z" fill="#FEDEA5"/>
<path d="M110.676 26.1696C110.619 26.1886 110.56 26.2048 110.497 26.2161C109.156 26.4899 106.182 25.949 105.092 25.044C104.011 24.1457 101.708 20.3799 101.611 20.2204C101.61 20.2175 101.606 20.2156 101.604 20.2098C100.494 18.0465 101.143 15.3019 103.048 14.0939C104.938 12.8974 107.444 13.1299 108.212 13.8727C109.331 14.9533 111.081 17.1225 111.9 18.6279C112.677 20.0517 112.841 21.1475 112.515 22.6674L112.497 22.747C112.206 24.105 111.846 25.7831 110.676 26.1696ZM101.869 20.0649C101.965 20.2215 104.258 23.9557 105.282 24.8087C106.29 25.6482 109.167 26.1763 110.433 25.9176C111.551 25.692 111.91 24.0206 112.2 22.6789L112.218 22.5993C112.533 21.1407 112.38 20.1371 111.634 18.7671C110.829 17.2857 109.104 15.153 108.002 14.0859C107.319 13.4268 104.953 13.2408 103.211 14.3467C101.432 15.4745 100.832 18.0371 101.869 20.0649Z" fill="#263238"/>
<path d="M106.994 21.2142C106.986 21.2171 106.977 21.2199 106.967 21.2199C106.885 21.2311 106.81 21.1762 106.795 21.0947C106.794 21.0793 106.739 20.7109 106.997 20.4019C107.21 20.1494 107.561 20.0173 108.04 20.0092C108.122 20.0076 108.192 20.074 108.195 20.1593C108.197 20.2418 108.128 20.3126 108.045 20.3142C107.658 20.3206 107.384 20.4147 107.23 20.5964C107.06 20.7963 107.092 21.0477 107.093 21.0506C107.107 21.1225 107.063 21.1914 106.994 21.2142Z" fill="#263238"/>
<path d="M107.976 22.7454C107.292 22.9714 106.694 22.8592 106.679 22.8544C106.597 22.8369 106.545 22.7581 106.56 22.6766C106.577 22.5942 106.656 22.5426 106.737 22.5573C106.826 22.5758 108.937 22.9643 109.532 20.3653C109.549 20.2829 109.632 20.2333 109.714 20.2508C109.796 20.2683 109.846 20.351 109.829 20.4334C109.494 21.9083 108.688 22.5099 107.976 22.7454Z" fill="#263238"/>
<path d="M104.839 21.789C104.514 21.8964 104.271 21.8553 104.251 21.8524C104.088 21.8231 103.978 21.6645 104.006 21.4987C104.035 21.3357 104.191 21.2269 104.352 21.2533C104.39 21.2601 105.06 21.3294 105.574 20.2138C105.645 20.0625 105.823 19.994 105.974 20.0655C106.126 20.1369 106.194 20.3155 106.123 20.4668C105.731 21.3249 105.227 21.6608 104.839 21.789Z" fill="#263238"/>
<path d="M108.566 18.9472C108.27 19.0451 107.973 19.0825 107.743 19.0817C107.578 19.0822 107.44 18.9455 107.442 18.7758C107.441 18.6099 107.577 18.4722 107.744 18.4747C107.798 18.4758 109.088 18.4617 109.126 17.5067C109.131 17.3388 109.273 17.2089 109.44 17.2142C109.608 17.2195 109.738 17.3619 109.733 17.5297C109.702 18.3419 109.138 18.7582 108.566 18.9472Z" fill="#263238"/>
<path d="M103.419 20.5232C103.344 20.5479 103.262 20.5112 103.232 20.4382C103.217 20.4046 102.881 19.5893 103.245 18.8971C103.467 18.4787 103.889 18.2019 104.504 18.0783C104.585 18.0613 104.666 18.1143 104.684 18.1978C104.701 18.2784 104.651 18.3588 104.565 18.3777C104.042 18.4834 103.689 18.7057 103.513 19.0418C103.215 19.6066 103.507 20.3153 103.509 20.324C103.542 20.4027 103.507 20.4909 103.429 20.5232C103.428 20.5203 103.422 20.5222 103.419 20.5232Z" fill="#263238"/>
<path d="M106.325 17.0675C106.291 17.0789 106.253 17.0788 106.215 17.0624C106.14 17.0266 106.104 16.9393 106.139 16.8607C106.145 16.8492 106.748 15.5603 108.368 15.9386C108.451 15.9561 108.5 16.0388 108.483 16.1212C108.466 16.2036 108.383 16.2532 108.301 16.2357C106.919 15.9128 106.419 16.9758 106.414 16.9872C106.395 17.0284 106.363 17.0552 106.325 17.0675Z" fill="#263238"/>
<path d="M99.9358 22.9228C99.9358 22.9228 100.447 25.1724 100.842 25.6647C101.237 26.157 103.829 27.6422 104.342 28.0188C104.856 28.3955 104.948 28.4418 104.688 30.0099C104.429 31.5781 101.464 42.1485 101.972 44.3991C102.483 46.6487 103.274 48.5693 105.448 47.3842C107.625 46.1982 107.026 39.9204 106.917 36.292C106.808 32.6637 106.443 28.0275 106.14 27.1116C105.838 26.1986 102.137 24.8949 101.732 24.7315C101.33 24.5672 100.795 23.4185 100.586 22.7877C100.379 22.1503 100.028 22.2661 99.9358 22.9228Z" fill="#FEDEA5"/>
<path d="M104.935 47.773C104.435 47.9383 103.987 47.933 103.597 47.7553C102.599 47.3023 102.141 45.821 101.827 44.4265C101.441 42.7173 102.991 36.4128 103.917 32.6468C104.228 31.3781 104.476 30.3757 104.54 29.9808C104.782 28.5239 104.724 28.4824 104.273 28.1492C104.092 28.0172 103.699 27.7733 103.242 27.4899C102.248 26.8729 101.007 26.1074 100.725 25.7565C100.319 25.2517 99.8403 23.1863 99.7891 22.9541C99.7862 22.9358 99.7834 22.9176 99.7863 22.8975C99.8464 22.4814 100.01 22.2326 100.232 22.2103C100.352 22.1992 100.577 22.2527 100.735 22.7308C100.987 23.4911 101.503 24.4643 101.793 24.5822C101.835 24.6006 101.914 24.6286 102.023 24.6693C104.733 25.6936 106.089 26.4498 106.289 27.0547C106.608 28.0195 106.966 32.719 107.074 36.2773C107.089 36.7386 107.109 37.2403 107.133 37.7688C107.292 41.4222 107.508 46.4243 105.525 47.5045C105.319 47.6237 105.122 47.7113 104.935 47.773ZM100.086 22.9166C100.233 23.5549 100.653 25.1923 100.956 25.5683C101.205 25.8788 102.524 26.6954 103.397 27.2343C103.878 27.5322 104.255 27.7655 104.428 27.8936C105.024 28.329 105.091 28.4922 104.834 30.0307C104.767 30.4361 104.518 31.4452 104.206 32.7206C103.288 36.4617 101.748 42.7211 102.118 44.3623C102.401 45.6042 102.835 47.0805 103.719 47.4785C104.172 47.6833 104.714 47.6064 105.376 47.247C107.194 46.2564 106.979 41.3627 106.825 37.7908C106.802 37.2585 106.779 36.7549 106.767 36.2926C106.651 32.4398 106.276 27.9983 105.997 27.1544C105.885 26.8146 105.084 26.156 101.911 24.9585C101.801 24.915 101.718 24.885 101.674 24.8676C101.184 24.6685 100.632 23.4104 100.439 22.8286C100.355 22.5723 100.269 22.5144 100.249 22.5144C100.231 22.5172 100.137 22.5994 100.086 22.9166Z" fill="#263238"/>
<path d="M106.918 36.2879C106.908 35.9273 106.894 35.558 106.878 35.183L103.497 34.9937C102.628 38.6132 101.662 43.0312 101.973 44.395C102.484 46.6446 103.275 48.5652 105.449 47.3801C107.626 46.1941 107.028 39.9191 106.918 36.2879Z" fill="#F26F1F"/>
<path d="M104.935 47.7734C104.435 47.9386 103.987 47.9333 103.597 47.7556C102.599 47.3026 102.141 45.8214 101.827 44.4269C101.504 42.9969 102.543 38.3374 103.355 34.9576C103.373 34.8876 103.436 34.8379 103.511 34.842L106.891 35.0284C106.968 35.0315 107.031 35.0941 107.034 35.1727C107.05 35.5477 107.064 35.9199 107.075 36.2805C107.091 36.7419 107.11 37.2435 107.135 37.772C107.293 41.4255 107.509 46.4275 105.526 47.5077C105.319 47.624 105.122 47.7116 104.935 47.7734ZM103.617 35.1521C102.818 38.4927 101.815 43.0094 102.121 44.3617C102.404 45.6036 102.838 47.0799 103.722 47.4779C104.175 47.6827 104.717 47.6058 105.379 47.2464C107.197 46.2558 106.982 41.3621 106.828 37.7902C106.805 37.2579 106.782 36.7543 106.77 36.292C106.761 35.9755 106.75 35.6532 106.734 35.3262L103.617 35.1521Z" fill="#263238"/>
<path d="M102.885 37.6464C102.88 37.6704 102.876 37.6943 102.871 37.7183C102.858 37.7767 102.845 37.8323 102.832 37.8908C102.804 38.0182 102.779 38.1447 102.75 38.2693C103.576 38.1943 105.013 38.1251 106.997 38.2331C106.989 38.025 106.979 37.8236 106.971 37.625C105.124 37.5232 103.748 37.5753 102.885 37.6464Z" fill="#263238"/>
<path d="M106.629 45.5973C106.693 45.3779 106.749 45.1421 106.799 44.8958C104.891 45.5677 103.355 45.6855 102.308 45.6419C102.381 45.8608 102.459 46.0682 102.543 46.2641C103.565 46.2808 104.949 46.1462 106.629 45.5973Z" fill="#263238"/>
<path d="M102.139 41.4746C102.129 41.5321 102.12 41.5896 102.113 41.6462C102.104 41.7066 102.093 41.7708 102.085 41.8312C102.07 41.9318 102.059 42.0248 102.047 42.1217C103.216 41.8598 105.035 41.6038 107.071 41.8539C107.075 41.6516 107.077 41.4464 107.076 41.2421C105.101 41.0037 103.343 41.2205 102.139 41.4746Z" fill="#263238"/>
<path d="M111.333 13.6576C111.333 13.6576 113.537 14.3284 113.998 14.7576C114.459 15.1897 115.751 17.8839 116.089 18.424C116.427 18.964 116.468 19.0591 118.049 18.9136C119.629 18.7653 130.368 16.5576 132.57 17.2293C134.774 17.9 136.63 18.8267 135.293 20.9169C133.957 23.0071 127.749 21.9629 124.143 21.5926C120.536 21.2224 115.946 20.5286 115.057 20.1613C114.167 19.794 113.134 16.0016 113 15.5887C112.867 15.1759 111.761 14.5576 111.145 14.3044C110.534 14.0492 110.676 13.7054 111.333 13.6576Z" fill="#FEDEA5"/>
<path d="M134.021 21.9592C131.958 22.6412 128.391 22.2288 125.614 21.9072C125.087 21.848 124.59 21.7889 124.131 21.7423C120.595 21.3809 115.94 20.686 115.003 20.2993C114.416 20.0558 113.756 18.6477 112.932 15.8658C112.899 15.7554 112.875 15.6738 112.861 15.6306C112.765 15.3301 111.831 14.744 111.093 14.4386C110.628 14.2472 110.59 14.0169 110.609 13.899C110.643 13.6766 110.905 13.5327 111.322 13.5033C111.342 13.5034 111.361 13.5035 111.379 13.5102C111.609 13.5781 113.629 14.2041 114.103 14.6449C114.435 14.9538 115.107 16.2459 115.651 17.2834C115.9 17.757 116.113 18.1691 116.221 18.3411C116.531 18.836 116.567 18.8975 118.036 18.7603C118.434 18.7213 119.451 18.5481 120.736 18.3278C124.552 17.6707 130.94 16.572 132.616 17.0819C133.978 17.4977 135.422 18.0586 135.804 19.0888C136.009 19.6409 135.88 20.284 135.424 20.997C135.138 21.443 134.65 21.7512 134.021 21.9592ZM111.058 13.8592C110.946 13.8963 110.909 13.9403 110.906 13.9508C110.905 13.9671 110.958 14.0584 111.205 14.1618C111.77 14.3938 112.983 15.0374 113.146 15.5395C113.16 15.5827 113.185 15.6671 113.219 15.7804C114.187 19.0356 114.786 19.8824 115.115 20.0197C115.934 20.3589 120.329 21.0501 124.159 21.4394C124.617 21.4859 125.118 21.5441 125.645 21.6062C129.191 22.0156 134.049 22.576 135.166 20.8332C135.574 20.1967 135.687 19.661 135.517 19.1934C135.18 18.2822 133.743 17.7415 132.527 17.3731C130.922 16.8846 124.579 17.9748 120.787 18.6272C119.494 18.8503 118.474 19.0245 118.063 19.0644C116.511 19.2099 116.354 19.1308 115.975 18.5244C115.848 18.3236 115.644 17.9278 115.38 17.4273C114.904 16.5176 114.188 15.141 113.894 14.8705C113.54 14.5405 111.94 14.0021 111.316 13.8121C111.204 13.8204 111.121 13.8383 111.058 13.8592Z" fill="#263238"/>
<path d="M124.145 21.5914C123.789 21.5557 123.418 21.5152 123.047 21.4718L123.102 18.0799C126.768 17.4722 131.239 16.822 132.572 17.2281C134.776 17.8988 136.632 18.8255 135.295 20.9157C133.959 23.0059 127.751 21.9617 124.145 21.5914Z" fill="#F26F1F"/>
<path d="M134.021 21.9596C131.958 22.6416 128.391 22.2292 125.614 21.9076C125.087 21.8484 124.59 21.7893 124.131 21.7427C123.771 21.7051 123.405 21.6665 123.031 21.6241C122.954 21.6143 122.894 21.5479 122.897 21.4702L122.952 18.0783C122.953 18.0045 123.003 17.9432 123.079 17.931C126.502 17.3618 131.216 16.6568 132.619 17.0813C133.98 17.4971 135.425 18.058 135.807 19.0883C136.012 19.6404 135.883 20.2835 135.427 20.9965C135.138 21.4434 134.647 21.7526 134.021 21.9596ZM124.16 21.4426C124.618 21.4892 125.119 21.5474 125.646 21.6095C129.192 22.0189 134.05 22.5793 135.167 20.8365C135.575 20.2 135.688 19.6643 135.518 19.1967C135.181 18.2855 133.744 17.7448 132.528 17.3764C131.203 16.9742 126.634 17.6538 123.251 18.2126L123.201 21.3408C123.525 21.3744 123.846 21.409 124.16 21.4426Z" fill="#263238"/>
<path d="M129.656 22.14C129.86 22.1522 130.06 22.1596 130.261 22.1669L130.535 17.1243C130.403 17.1296 130.269 17.1388 130.129 17.1498C130.102 17.1526 130.07 17.1535 130.042 17.1563C130.005 17.159 129.965 17.1627 129.927 17.1655L129.656 22.14Z" fill="#263238"/>
<path d="M126.916 17.4963C126.864 17.5038 126.81 17.5123 126.757 17.5169C126.617 17.5376 126.477 17.5553 126.337 17.576L126.058 21.8054C126.213 21.8212 126.369 21.8399 126.525 21.8587C126.568 21.8636 126.614 21.8676 126.661 21.8744L126.95 17.4917C126.938 17.4954 126.929 17.4954 126.916 17.4963Z" fill="#263238"/>
<path d="M133.697 17.6162C133.6 18.6229 133.413 20.4511 133.194 22.0156C133.416 21.9741 133.63 21.9258 133.827 21.867C134.022 20.4416 134.185 18.8607 134.28 17.8741C134.096 17.7815 133.899 17.6964 133.697 17.6162Z" fill="#263238"/>
<path d="M169.673 61.7655C170.343 61.8636 171.013 62.281 171.013 62.281C171.013 62.281 170.986 63.0664 169.835 64.7822C171.203 65.4675 172.472 66.2235 172.847 66.0453C173.583 65.6967 174.547 61.5444 174.899 60.3611C175.251 59.1807 176.216 58.1845 175.87 56.4907C175.523 54.794 174.532 55.0162 174.308 55.6235C174.085 56.2308 172.257 58.5793 171.14 59.3765C170.023 60.1708 169.164 60.873 169.164 60.873C169.164 60.873 169.003 61.6675 169.673 61.7655Z" fill="#F37630"/>
<path d="M172.865 66.1985C172.503 66.3182 171.785 65.9611 170.582 65.3396C170.317 65.2035 170.04 65.0587 169.761 64.9178C169.722 64.8985 169.692 64.8639 169.681 64.8226C169.671 64.7814 169.678 64.7344 169.701 64.698C170.596 63.364 170.797 62.6042 170.842 62.3626C170.646 62.2517 170.142 61.9902 169.646 61.9176C169.425 61.8853 169.258 61.7869 169.144 61.6235C168.92 61.3044 169.005 60.8578 169.012 60.8396C169.02 60.8051 169.038 60.7735 169.066 60.7515C169.074 60.7458 169.939 60.0379 171.049 59.2493C172.157 58.4617 173.95 56.1437 174.165 55.568C174.293 55.2223 174.618 54.9998 174.957 55.0249C175.193 55.0429 175.764 55.2184 176.018 56.4602C176.272 57.6991 175.862 58.5628 175.464 59.394C175.301 59.7387 175.146 60.0614 175.043 60.4053C174.977 60.6286 174.886 60.962 174.78 61.3549C174.142 63.7351 173.516 65.8937 172.91 66.1805C172.895 66.1852 172.879 66.1938 172.865 66.1985ZM170.05 64.7231C170.28 64.8389 170.504 64.9567 170.723 65.0696C171.578 65.5154 172.546 66.0162 172.778 65.9077C173.31 65.6552 174.104 62.6963 174.486 61.2763C174.594 60.8796 174.684 60.5432 174.75 60.32C174.859 59.955 175.027 59.6055 175.187 59.2684C175.564 58.4794 175.951 57.6645 175.718 56.5244C175.569 55.8037 175.275 55.3578 174.931 55.3308C174.728 55.3148 174.527 55.458 174.446 55.6764C174.217 56.2952 172.394 58.6677 171.224 59.4983C170.266 60.179 169.495 60.7951 169.304 60.9508C169.293 61.0534 169.282 61.2902 169.396 61.4507C169.462 61.544 169.559 61.598 169.693 61.6176C170.387 61.7205 171.063 62.136 171.092 62.1553C171.14 62.1842 171.166 62.2361 171.161 62.2888C171.159 62.3186 171.121 63.0914 170.05 64.7231Z" fill="#263238"/>
<path d="M175.175 55.2478C175.58 57.3023 175.168 58.1478 173.693 61.3827C172.542 63.907 172.247 65.3302 172.177 66.0051C172.481 66.0867 172.714 66.1056 172.844 66.0466C173.58 65.698 174.544 61.5456 174.896 60.3623C175.248 59.1819 176.213 58.1857 175.867 56.4919C175.718 55.7616 175.452 55.3896 175.175 55.2478Z" fill="white"/>
<path d="M172.856 66.2016C172.698 66.2538 172.467 66.2377 172.138 66.1513C172.066 66.1338 172.017 66.0636 172.028 65.9898C172.109 65.2123 172.439 63.771 173.557 61.3185L173.642 61.1337C175.042 58.0674 175.417 57.2438 175.028 55.2766C175.016 55.22 175.041 55.1606 175.087 55.1262C175.133 55.0918 175.195 55.0872 175.248 55.1143C175.499 55.2455 175.838 55.587 176.018 56.4603C176.272 57.6993 175.862 58.563 175.464 59.3941C175.301 59.7389 175.146 60.0616 175.043 60.4055C174.977 60.6288 174.886 60.9622 174.78 61.3551C174.142 63.7352 173.517 65.8939 172.91 66.1806C172.894 66.1892 172.876 66.1949 172.856 66.2016ZM172.345 65.8882C172.637 65.9515 172.746 65.925 172.778 65.9078C173.31 65.6554 174.105 62.6965 174.486 61.2764C174.594 60.8798 174.684 60.5434 174.75 60.3202C174.859 59.9551 175.028 59.6056 175.187 59.2686C175.564 58.4795 175.951 57.6647 175.718 56.5246C175.634 56.1177 175.517 55.8497 175.403 55.6767C175.661 57.4412 175.204 58.4419 173.915 61.2641L173.829 61.4489C172.748 63.819 172.433 65.2105 172.345 65.8882Z" fill="#263238"/>
<path d="M126.292 52.4224C126.249 52.4366 126.197 52.4317 126.157 52.3999C126.091 52.3517 126.074 52.2548 126.122 52.1878C126.122 52.1878 126.361 51.8568 126.755 51.3143C126.803 51.2473 126.9 51.2313 126.968 51.2824C127.034 51.3305 127.051 51.4274 127 51.4954C126.604 52.035 126.37 52.368 126.37 52.368C126.347 52.3948 126.321 52.4129 126.292 52.4224Z" fill="white"/>
<path d="M125.385 53.2946C125.385 53.2946 132.457 42.8649 138.945 37.7367C145.434 32.6114 148.525 33.6121 148.905 36.3619C149.281 39.1126 148.691 48.5725 147.628 54.0355C146.565 59.4986 144.665 68.538 144.665 68.538C144.665 68.538 150.816 73 151.421 73.5477C152.025 74.0924 149.282 75.1078 147.91 74.8138C146.819 74.5801 146.872 74.6839 144.465 74.0355C140.385 72.9367 139.907 72.1363 140.129 71.2097C140.847 68.2409 142.014 65.5709 141.775 62.3564C141.337 56.5174 141.522 48.7057 142.054 49.3797C142.054 49.3797 139.842 53.9443 135.338 57.3497C130.832 60.7561 127.376 61.4028 124.13 59.1406" fill="#73B4EA"/>
<path d="M150.301 74.691C149.494 74.9579 148.507 75.0985 147.874 74.9661C147.555 74.8989 147.335 74.8598 147.122 74.8217C146.611 74.7318 146.126 74.6459 144.422 74.1868C140.363 73.0939 139.72 72.2555 139.979 71.1794C140.162 70.4194 140.377 69.6711 140.588 68.9497C141.211 66.7852 141.799 64.7444 141.621 62.375C141.351 58.7394 141.279 53.1596 141.551 50.5874C140.592 52.1724 138.55 55.1158 135.425 57.4775C130.794 60.9793 127.281 61.53 124.036 59.2706C123.966 59.2234 123.951 59.1294 123.998 59.0595C124.045 58.9897 124.141 58.9737 124.208 59.0218C127.327 61.1954 130.731 60.6454 135.24 57.2352C138.831 54.5212 140.971 51.0314 141.662 49.7869C141.73 49.4515 141.812 49.2456 141.911 49.2094C141.946 49.198 142.062 49.1629 142.166 49.2946C142.203 49.3398 142.208 49.4022 142.184 49.4549C142.18 49.4625 142.089 49.6492 141.91 49.9671C141.643 51.6685 141.541 57.3283 141.918 62.3568C142.1 64.7789 141.503 66.8485 140.875 69.0369C140.666 69.7574 140.454 70.5019 140.272 71.2551C140.1 71.97 140.283 72.7627 144.499 73.8964C146.189 74.3536 146.666 74.4357 147.171 74.5275C147.387 74.5646 147.611 74.6056 147.937 74.6738C149.078 74.9162 151.105 74.2304 151.339 73.7698C151.36 73.7277 151.359 73.7056 151.318 73.6681C150.727 73.1349 144.637 68.7133 144.575 68.67C144.526 68.6353 144.503 68.5758 144.515 68.5173C144.534 68.4282 146.426 59.4165 147.478 54.0148C148.553 48.4904 149.126 39.1034 148.754 36.3891C148.622 35.4201 148.151 34.7453 147.397 34.4417C146.403 34.0386 143.995 33.9494 139.038 37.8626C132.643 42.9152 125.581 53.2807 125.51 53.3841C125.463 53.4539 125.37 53.4718 125.301 53.4246C125.231 53.3774 125.213 53.2843 125.26 53.2145C125.331 53.1111 132.42 42.7045 138.851 37.6241C142.612 34.6527 145.686 33.4225 147.507 34.1592C148.368 34.5072 148.902 35.2637 149.053 36.3479C149.428 39.0833 148.853 48.5221 147.773 54.0704C146.782 59.1712 145.037 67.4919 144.831 68.48C145.586 69.0262 150.945 72.9255 151.52 73.4414C151.662 73.5704 151.695 73.7383 151.61 73.9069C151.46 74.1931 150.936 74.4811 150.301 74.691Z" fill="#73B4EA"/>
<path d="M127.881 50.2549C127.835 50.2701 127.784 50.2613 127.743 50.2334C127.675 50.1823 127.663 50.0874 127.711 50.0204C129.195 48.0381 131.303 45.3222 132.934 43.6491C132.99 43.5889 133.089 43.5882 133.146 43.646C133.207 43.7056 133.207 43.8015 133.15 43.8589C131.531 45.5214 129.432 48.2249 127.953 50.2024C127.935 50.2273 127.91 50.2454 127.881 50.2549Z" fill="white"/>
<path d="M139.503 53.168C139.463 53.1813 139.417 53.1773 139.376 53.1522C139.305 53.1089 139.283 53.0138 139.326 52.9421L141.103 50.0515C141.075 49.4472 140.881 43.3616 143.556 39.2761C143.603 39.2062 143.695 39.1854 143.765 39.2326C143.835 39.2799 143.856 39.372 143.809 39.4419C141.061 43.6374 141.403 50.016 141.408 50.0784C141.409 50.11 141.403 50.1407 141.386 50.1656L139.587 53.0954C139.565 53.1346 139.537 53.1566 139.503 53.168Z" fill="white"/>
<path d="M148.569 47.98C148.552 47.9857 148.531 47.9894 148.511 47.9865C148.426 47.9824 148.364 47.9103 148.368 47.8259L148.459 46.3358C148.463 46.2515 148.535 46.1894 148.619 46.1935C148.704 46.1976 148.766 46.2697 148.762 46.3541L148.671 47.8441C148.67 47.9084 148.627 47.961 148.569 47.98Z" fill="white"/>
<path d="M148.74 45.1789C148.723 45.1846 148.702 45.1884 148.682 45.1854C148.597 45.1813 148.535 45.1092 148.539 45.0248L148.866 39.6294C148.87 39.5451 148.942 39.4829 149.026 39.4871C149.111 39.4912 149.173 39.5633 149.169 39.6477L148.842 45.0431C148.838 45.1083 148.797 45.1599 148.74 45.1789Z" fill="white"/>
<path d="M147.905 74.8186C149.276 75.1098 152.023 74.0963 151.417 73.5525C150.813 73.0077 144.661 68.5428 144.661 68.5428C144.661 68.5428 145.164 66.1498 145.798 63.081C143.868 63.4536 142.568 63.0111 141.777 62.5185C141.968 65.6628 140.833 68.2936 140.125 71.2145C139.902 72.1411 140.38 72.9415 144.46 74.0403C146.867 74.6887 146.814 74.5849 147.905 74.8186Z" fill="#FEDEA5"/>
<path d="M150.301 74.6911C149.494 74.958 148.507 75.0986 147.874 74.9662C147.555 74.899 147.335 74.8599 147.122 74.8218C146.611 74.7319 146.126 74.646 144.422 74.1869C140.363 73.094 139.72 72.2556 139.979 71.1795C140.163 70.4224 140.376 69.6779 140.584 68.9574C141.194 66.839 141.769 64.8374 141.628 62.5295C141.625 62.4729 141.652 62.4193 141.703 62.3898C141.751 62.3611 141.811 62.3604 141.86 62.3922C142.586 62.8453 143.854 63.3049 145.771 62.9332C145.822 62.9228 145.872 62.9383 145.906 62.9749C145.941 63.0114 145.958 63.0633 145.945 63.1121C145.387 65.8205 144.928 68.0009 144.83 68.4772C145.585 69.0234 150.944 72.9228 151.519 73.4387C151.661 73.5676 151.694 73.7356 151.609 73.9041C151.46 74.1932 150.936 74.4812 150.301 74.6911ZM141.943 62.7895C142.027 65.03 141.467 66.9818 140.876 69.0399C140.669 69.7566 140.456 70.501 140.274 71.2514C140.102 71.9663 140.285 72.759 144.5 73.8927C146.191 74.3499 146.668 74.4319 147.173 74.5237C147.389 74.5609 147.613 74.6019 147.939 74.67C149.08 74.9125 151.107 74.2266 151.341 73.7661C151.362 73.7239 151.361 73.7019 151.32 73.6643C150.729 73.1311 144.639 68.7096 144.577 68.6663C144.528 68.6316 144.505 68.572 144.517 68.5136C144.517 68.5136 144.997 66.2336 145.606 63.2722C143.906 63.5496 142.706 63.1986 141.943 62.7895Z" fill="#263238"/>
<path d="M144.661 68.5429C144.661 68.5429 144.184 68.3812 143.958 69.3088C143.732 70.2364 143.698 71.0975 143.698 71.0975L140.641 69.3029C140.46 69.9315 140.28 70.5658 140.125 71.2145C139.902 72.1412 140.38 72.9416 144.46 74.0404C146.868 74.6887 146.814 74.585 147.905 74.8187C149.276 75.1098 152.024 74.0963 151.417 73.5525C150.812 73.0049 144.661 68.5429 144.661 68.5429Z" fill="#F37630"/>
<path d="M150.301 74.6909C149.494 74.9578 148.508 75.0985 147.874 74.966C147.555 74.8988 147.335 74.8598 147.122 74.8217C146.611 74.7318 146.127 74.6459 144.422 74.1867C140.364 73.0938 139.72 72.2555 139.979 71.1793C140.143 70.5056 140.332 69.8359 140.496 69.261C140.51 69.215 140.542 69.1787 140.584 69.1615C140.629 69.1435 140.675 69.1475 140.718 69.1716L143.565 70.8408C143.592 70.5158 143.656 69.9099 143.811 69.2707C143.913 68.8539 144.08 68.5782 144.309 68.4514C144.514 68.3389 144.691 68.3922 144.709 68.399C144.723 68.4038 144.739 68.4115 144.751 68.4202C145.003 68.6023 150.916 72.8938 151.52 73.4385C151.661 73.5675 151.694 73.7354 151.61 73.9039C151.46 74.1931 150.936 74.481 150.301 74.6909ZM140.732 69.5312C140.582 70.0601 140.414 70.6523 140.27 71.2493C140.099 71.9642 140.281 72.7569 144.497 73.8906C146.187 74.3478 146.664 74.4299 147.169 74.5217C147.386 74.5588 147.61 74.5998 147.935 74.668C149.077 74.9104 151.104 74.2245 151.337 73.764C151.358 73.7219 151.357 73.6998 151.316 73.6623C150.744 73.1454 145.039 69.0023 144.598 68.6815C144.572 68.6776 144.512 68.6813 144.445 68.7194C144.344 68.7785 144.201 68.9344 144.102 69.3407C143.883 70.2405 143.849 71.092 143.848 71.0987C143.846 71.1505 143.814 71.1993 143.769 71.227C143.723 71.2518 143.666 71.2516 143.619 71.2256L140.732 69.5312Z" fill="#F37630"/>
<path d="M144.462 74.0403C146.869 74.6886 146.816 74.5849 147.906 74.8186C149.141 75.0815 151.486 74.2873 151.505 73.7282C147.067 74.9396 142.301 72.6523 140.099 71.364C139.964 72.2267 140.602 72.9998 144.462 74.0403Z" fill="white"/>
<path d="M150.278 74.7049C149.493 74.9642 148.534 75.1088 147.874 74.9657C147.556 74.8985 147.336 74.8594 147.122 74.8213C146.611 74.7314 146.127 74.6455 144.423 74.1864C140.496 73.1265 139.8 72.312 139.947 71.34C139.956 71.2892 139.986 71.2471 140.031 71.2261C140.077 71.2042 140.129 71.2063 140.173 71.2333C142.536 72.6152 147.143 74.76 151.462 73.5818C151.509 73.5695 151.557 73.5793 151.595 73.6081C151.633 73.637 151.655 73.6841 151.652 73.733C151.647 73.8816 151.55 74.0319 151.365 74.1761C151.12 74.369 150.726 74.5567 150.278 74.7049ZM140.233 71.6161C140.261 72.2041 140.876 72.9177 144.501 73.8922C146.192 74.3494 146.668 74.4315 147.174 74.5232C147.39 74.5604 147.614 74.6014 147.939 74.6695C148.851 74.8633 150.468 74.4504 151.127 73.9768C146.95 74.9167 142.611 72.977 140.233 71.6161Z" fill="#263238"/>
</g>
</svg>
