<svg width="414" height="289" viewBox="0 0 414 289" fill="none" xmlns="http://www.w3.org/2000/svg">
<path fill-rule="evenodd" clip-rule="evenodd" d="M-0.390381 -26H413.602V319.303H-0.390381V-26Z" fill="#444359"/>
<path d="M38.0722 27.2016C14.7149 20.6323 18.121 40.3403 22.9871 40.3403C24.9863 40.3403 29.1304 40.8269 34.1797 40.8269H49.5081C68.9726 40.8269 74.5687 39.5293 74.8123 39.1238C76.5154 26.2284 66.2154 27.445 60.7004 28.9048C61.5925 24.1197 60.6516 14.4523 49.7511 14.063C38.8505 13.6737 37.4233 22.6599 38.0722 27.2016Z" fill="#616077"/>
<path d="M347.263 128.616C312.422 118.817 317.503 148.215 324.761 148.215C327.743 148.215 333.925 148.94 341.456 148.94H364.321C393.355 148.94 401.702 147.005 402.065 146.4C404.606 127.165 389.242 128.979 381.016 131.157C382.346 124.019 380.943 109.599 364.683 109.018C348.424 108.438 346.295 121.842 347.263 128.616Z" fill="#616077"/>
<path d="M-128.265 -82.9999L117.204 6.65331C118.23 3.57288 119.405 0.578026 120.73 -2.33127L-45.0106 -82.9999H-9.98625L123.294 -7.59366C124.854 -10.5457 126.564 -13.3908 128.423 -16.129L34.868 -82.9999H55.9809L131.992 -21.0064C134.107 -23.7231 136.351 -26.3329 138.744 -28.8144L85.3637 -82.9999H100.215L143.21 -33.1783C145.86 -35.5742 148.66 -37.8417 151.566 -39.9381L122.162 -82.9999H133.744L156.972 -43.5106C160.114 -45.4572 163.383 -47.2114 166.759 -48.773L151.673 -82.9999H161.524L172.914 -51.3614C176.44 -52.6877 180.073 -53.8214 183.769 -54.7413L177.23 -82.9999H186.206L190.437 -56.1104C194.198 -56.7521 198.023 -57.1586 201.933 -57.3297L201.014 -82.9999H209.712L208.793 -57.3725C212.703 -57.2655 216.55 -56.9233 220.311 -56.3457L224.499 -82.9999H233.474L227.021 -55.0622C230.761 -54.2065 234.415 -53.1155 237.983 -51.832L249.224 -82.9999H259.075L244.245 -49.3078C247.664 -47.7889 250.976 -46.0562 254.16 -44.1309L276.982 -82.9999H288.607L259.631 -40.5799C262.601 -38.5049 265.422 -36.2801 268.136 -33.8842L310.49 -82.9999H325.341L272.709 -29.5417C275.145 -27.0602 277.453 -24.4504 279.632 -21.7123L354.745 -82.9999H375.794L283.244 -16.8135C285.146 -14.054 286.919 -11.1661 288.522 -8.19263L420.713 -82.9999H455.48L291.172 -2.93024C292.539 0.0218353 293.757 3.08087 294.826 6.18269L538.906 -82.9999H613.763L296.493 11.6804C297.326 14.7394 298.01 17.8626 298.523 21.0286L842.052 -82.9999H989.479V-63.2338L299.292 26.6333C299.613 29.7351 299.784 32.8797 299.784 36.0671L989.479 15.6165V61.9084L299.655 41.6504C299.484 44.8164 299.142 47.9396 298.672 51.02L989.5 140.973V188.741L297.625 56.4963C296.941 59.5981 296.129 62.6358 295.146 65.6092L989.479 272.404V325.135L293.223 70.9358C292.048 73.9306 290.702 76.84 289.227 79.6637L989.457 420.436V482.108L286.406 84.6694C284.718 87.4931 282.88 90.2099 280.914 92.8197L989.457 598.993V678.079L952.873 648.195L277.239 97.4189C275.038 99.9645 272.73 102.403 270.272 104.714L875.238 718.852L929.602 773.979H839.744L825.191 757.058L265.699 108.757C263.028 110.96 260.229 113.014 257.323 114.917L707.446 773.979H637.611L252.023 118.169C248.946 119.902 245.74 121.485 242.45 122.875L529.696 774H469.99L236.445 125.164C233.047 126.341 229.543 127.303 225.974 128.073L375.025 774H320.661L219.563 129.229C215.973 129.742 212.34 130.063 208.622 130.17L231.466 774H179.068L202.126 130.106C198.429 129.956 194.796 129.592 191.227 129.015L89.8726 774H35.509L184.838 127.774C181.291 126.961 177.829 125.934 174.452 124.715L-59.4562 774H-118.906L168.554 122.362C165.306 120.929 162.144 119.324 159.088 117.549L-172.5 681.181V591.87L153.852 114.276C150.989 112.35 148.254 110.275 145.647 108.051L-172.5 476.568V422.361L141.18 104.029C138.787 101.719 136.5 99.28 134.364 96.7343L-172.5 346.719V308.578L130.731 92.1565C128.807 89.5681 127.034 86.8727 125.367 84.0704L-172.5 252.339V222.433L122.61 79.0647C121.179 76.2838 119.896 73.3958 118.743 70.4652L-172.5 176.718V151.348L116.883 65.2028C115.943 62.2721 115.131 59.2772 114.49 56.2396L-172.5 111.11V88.0065L113.486 50.8275C113.016 47.8112 112.695 44.7308 112.524 41.629L-172.5 50.0146V27.5531L112.374 36.0885C112.374 32.9653 112.545 29.8635 112.866 26.8044L-172.5 -10.4174V-33.3708L113.593 21.3281C114.105 18.2049 114.768 15.1245 115.559 12.1082L-172.5 -73.78V-82.9999H-128.265Z" fill="#FFC773"/>
<g clip-path="url(#clip0)">
<path d="M181.72 -11.7637C174.45 -11.4187 168.498 -6.47333 165.31 -0.168653C163.79 2.83851 162.614 6.40563 162.835 9.81061C163.068 13.3947 164.877 16.8694 167.929 18.8566C175.287 23.6436 185.564 19.4015 190.594 13.2212C192.846 10.4535 194.497 6.94107 193.162 3.37018C192.52 1.65073 191.295 0.261211 189.409 -0.0310211C187.687 -0.298743 185.401 0.255555 184.218 1.5772C181.479 4.6315 181.644 9.45993 184.061 12.65C185.369 14.377 187.46 15.6515 189.331 16.696C191.297 17.7933 193.387 18.6209 195.586 19.1149C199.472 19.9878 204.78 20.2687 208.168 17.7442C211.384 15.3498 213.609 11.2152 213.715 7.20691C213.785 4.59191 212.365 0.246128 208.994 0.657138C205.642 1.06438 205.49 4.98783 205.884 7.56325C206.492 11.5376 208.966 14.7654 211.99 17.2936C214.997 19.8087 218.794 22.254 222.777 22.6688C226.97 23.1043 230.827 21.1624 233.443 17.9648C235.874 14.9897 236.48 11.4113 236.204 7.67637C235.711 1.04553 232.314 -5.64188 226.553 -9.2222C225.068 -10.146 223.455 -10.8304 221.766 -11.2848C220.76 -11.5563 220.235 -10.0273 221.243 -9.75387C226.784 -8.26066 230.897 -4.03178 233.037 1.18316C235.164 6.36604 235.742 13.127 231.691 17.5274C229.072 20.3706 225.332 21.7469 221.508 20.8287C218.372 20.0764 215.325 18.0044 212.888 15.9513C210.38 13.8396 208.231 11.136 207.577 7.86491C207.335 6.65261 207.174 5.31966 207.456 4.09794C207.808 2.5689 209.322 1.61679 210.624 2.82531C213.162 5.17826 212.058 9.6692 210.668 12.2918C209.893 13.751 208.859 15.0934 207.585 16.153C206.176 17.3257 204.301 17.7574 202.512 17.978C198.627 18.455 194.514 17.5444 191.047 15.7891C187.731 14.1111 184.235 11.794 183.848 7.79138C183.667 5.91166 184.208 3.39281 185.896 2.26724C187.702 1.06249 190.232 1.24915 191.325 3.2269C192.874 6.0361 191.641 9.2318 189.831 11.564C185.418 17.2522 177.16 21.3132 170.045 18.1816C166.827 16.7657 164.814 13.4833 164.471 10.0689C164.149 6.86378 165.305 3.39092 166.742 0.564755C169.628 -5.11021 175.016 -9.83306 181.623 -10.1479C182.657 -10.1988 182.763 -11.8127 181.72 -11.7637Z" fill="white"/>
<path d="M181.72 -11.9996C174.747 -11.6093 168.871 -7.09382 165.557 -1.13983C163.642 2.29909 162.205 6.39411 162.648 10.3741C163.023 13.7357 164.752 16.9559 167.571 18.8998C173.204 22.7855 180.741 21.1509 186.085 17.5857C188.95 15.6739 191.569 13.0476 192.986 9.87827C194.302 6.93332 194.317 2.81756 191.547 0.647505C189.227 -1.17188 185.396 -0.374367 183.667 1.87488C181.695 4.44087 181.513 8.0193 182.786 10.9303C184.276 14.3372 187.907 16.4186 191.17 17.8798C194.499 19.3692 198.268 20.1385 201.924 19.9461C205.545 19.7576 208.566 18.3266 210.827 15.474C212.85 12.9213 214.253 9.45218 213.91 6.15467C213.679 3.94501 212.617 0.971787 210.132 0.460853C207.384 -0.102873 205.78 2.23498 205.542 4.6426C204.82 11.8956 211.009 17.8119 216.899 20.968C220.23 22.7535 224.044 23.5924 227.706 22.3255C230.986 21.1905 233.835 18.617 235.272 15.4684C236.783 12.1596 236.745 8.31907 236.054 4.8104C235.368 1.33566 233.907 -2.01087 231.732 -4.82195C229.507 -7.69903 226.538 -9.93884 223.082 -11.1342C222.231 -11.4283 220.527 -12.0052 220.466 -10.495C220.451 -10.1274 220.629 -9.8163 220.944 -9.62776C221.665 -9.19224 222.699 -9.07157 223.483 -8.72278C230.216 -5.74013 234.395 1.74667 234.454 8.95255C234.486 12.9439 232.927 16.7806 229.538 19.0789C225.729 21.6618 221.345 21.0962 217.497 18.9224C213.967 16.9277 210.373 14.0261 208.628 10.2893C208.183 9.33529 207.89 8.33039 207.714 7.29343C207.509 6.08491 207.314 4.49931 207.99 3.39826C208.729 2.19351 209.975 2.37262 210.804 3.34547C211.452 4.10527 211.78 5.08189 211.876 6.06417C212.229 9.6426 210.236 13.6113 207.536 15.8794C205.809 17.3311 203.407 17.7478 201.211 17.844C199.031 17.9401 196.847 17.629 194.76 17.0087C191.314 15.9831 187.163 13.994 185.167 10.8624C183.343 8.00044 183.578 2.42918 187.74 1.79381C190.109 1.43182 191.603 3.3285 191.778 5.52684C191.941 7.58189 191.005 9.58227 189.808 11.2018C187.538 14.2768 184.227 16.7372 180.627 18.0438C177.093 19.3259 172.933 19.4974 169.549 17.6667C166.011 15.7531 164.362 11.6524 164.712 7.78551C165.085 3.6641 167.13 -0.476175 169.789 -3.61909C172.139 -6.39623 175.236 -8.60589 178.802 -9.50144C179.741 -9.73711 180.678 -9.76916 181.625 -9.92188C182.004 -9.98221 182.313 -10.1048 182.519 -10.4441C182.953 -11.1493 182.534 -11.9581 181.72 -11.9996C181.415 -12.0146 181.417 -11.5433 181.72 -11.5282C182.214 -11.5037 182.292 -11.1172 182.155 -10.791C181.998 -10.4121 181.695 -10.4008 181.343 -10.3706C181.042 -10.3442 180.743 -10.3197 180.442 -10.282C179.529 -10.1651 178.629 -9.96901 177.754 -9.68809C176.179 -9.1847 174.688 -8.43055 173.33 -7.48975C170.662 -5.6402 168.492 -3.10815 166.924 -0.281982C165.115 2.97782 163.737 6.89939 164.312 10.6664C164.784 13.7452 166.617 16.6807 169.429 18.1437C175.565 21.3375 183.045 18.5585 187.772 14.1599C190.155 11.9428 192.577 8.83001 192.236 5.38544C192.102 4.0242 191.514 2.54607 190.293 1.80512C189.147 1.10942 187.687 1.14524 186.485 1.67692C183.858 2.8383 183.182 6.23951 183.776 8.79419C184.492 11.8673 187.138 13.913 189.768 15.376C193.113 17.235 196.861 18.3983 200.718 18.3323C202.447 18.304 204.271 18.0721 205.881 17.416C207.555 16.7335 208.854 15.4382 209.892 13.9903C211.594 11.6147 212.823 8.33792 212.251 5.39298C212.016 4.1788 211.306 2.6837 210.081 2.18597C208.956 1.72782 207.865 2.45934 207.409 3.48876C206.708 5.07058 207.102 7.20293 207.562 8.80173C208.03 10.4194 208.865 11.905 209.899 13.2267C212.247 16.2282 215.707 18.8112 219.213 20.3025C222.478 21.6901 226.047 21.7014 229.151 19.8802C232.058 18.1739 234.018 15.2968 234.653 12.0125C235.878 5.67767 233.14 -1.57346 228.483 -5.94563C227.318 -7.03915 226.004 -7.98183 224.582 -8.71524C223.911 -9.06026 223.216 -9.36004 222.506 -9.61268C222.165 -9.73334 221.606 -9.79179 221.303 -9.98786C220.966 -10.2047 220.83 -10.644 221.124 -10.9079C221.485 -11.2322 221.957 -10.9965 222.328 -10.8815C226.218 -9.6862 229.524 -7.1485 231.861 -3.8491C236.026 2.02948 238.198 11.7278 233.27 17.7931C230.869 20.7493 227.237 22.6724 223.368 22.4744C219.057 22.2557 215.101 19.6539 211.926 16.9314C209.06 14.4748 206.687 11.2961 206.106 7.49517C205.706 4.88016 206.153 0.164849 210 0.913342C212.924 1.48272 213.666 5.62865 213.42 8.06266C213.033 11.9088 210.74 15.9605 207.375 17.9854C204.241 19.8707 200.144 19.7312 196.667 19.0902C192.675 18.3549 188.483 16.5355 185.449 13.7942C182.741 11.347 181.646 7.31983 183.038 3.896C183.822 1.96538 185.259 0.622994 187.344 0.240264C189.374 -0.133039 191.299 0.528727 192.393 2.3236C194.726 6.14524 192.596 10.6173 189.933 13.6245C187.653 16.2018 184.685 18.2173 181.466 19.4428C178.269 20.6588 174.694 21.1207 171.365 20.1648C167.653 19.0996 164.763 16.3357 163.604 12.6592C162.29 8.49064 163.489 4.04305 165.361 0.23838C166.939 -2.96863 169.21 -5.86268 172.098 -8.00068C174.904 -10.0784 178.216 -11.3359 181.714 -11.532C182.023 -11.5452 182.025 -12.0165 181.72 -11.9996Z" fill="white"/>
<path d="M182.405 56.9132C182.895 63.8153 187.469 71.654 194.937 72.5986C202.517 73.5563 208.52 65.4485 209.723 58.8049C210.197 56.1797 206.039 55.8948 205.567 58.4989C204.515 64.3139 198.391 71.1976 192.2 67.2479C188.529 64.905 186.788 60.2719 186.491 56.1058C186.306 53.4569 182.217 54.2774 182.405 56.9132Z" fill="#3F414E"/>
<path d="M182.026 56.9213C182.543 63.0661 185.85 69.7361 191.863 72.1766C198.073 74.6989 203.935 71.0948 207.277 65.8761C208.12 64.5595 208.811 63.1427 209.336 61.6704C209.734 60.557 210.457 58.8711 210.012 57.6759C209.408 56.0585 207.102 55.9477 205.949 57.0189C205.059 57.8474 205.064 59.2404 204.685 60.3169C204.014 62.2087 202.909 64.0001 201.486 65.4222C197.832 69.0659 192.892 68.5857 189.791 64.4882C188.386 62.6334 187.546 60.3829 187.125 58.1112C186.905 56.9213 187.146 55.2644 186.009 54.4728C184.199 53.2143 182.042 55.0375 182.026 56.9213C182.023 57.4068 182.779 57.3909 182.784 56.9055C182.8 55.0137 185.529 53.8766 186.115 56.1166C186.438 57.3487 186.417 58.6653 186.77 59.9132C187.469 62.3854 188.71 64.8075 190.652 66.5409C194.654 70.116 199.689 68.9102 202.904 64.9737C203.643 64.0661 204.282 63.0741 204.791 62.0187C205.369 60.8156 205.528 59.4937 206.039 58.2906C206.659 56.8316 209.182 56.4807 209.384 58.4384C209.524 59.813 208.52 61.8393 207.974 63.0239C205.491 68.4168 200.203 73.5169 193.787 72.0024C187.096 70.4247 183.319 63.2587 182.784 56.9028C182.741 56.4253 181.986 56.4385 182.026 56.9213Z" fill="#3F414E"/>
<path d="M156.433 77.6551C156.387 77.6551 156.345 77.6513 156.309 77.6419C156.177 77.6098 156.067 77.5306 156.003 77.4194C155.9 77.2422 155.959 77.0178 156.137 76.9141C161.714 73.6374 167.748 69.8327 169.354 68.4055C168.191 68.8523 164.955 70.5661 155.988 76.4541C155.096 77.0405 155.096 77.0405 154.933 77.0009C154.832 76.9763 154.747 76.9141 154.696 76.8255C154.565 76.5993 154.611 76.3391 155.065 75.8885C153.406 76.8368 152.636 77.1649 152.333 77.0914C152.215 77.0612 152.117 76.9895 152.058 76.8896C151.632 76.1543 153.105 75.0005 164.278 68.2772C164.43 68.1849 164.583 68.0944 164.735 68.002C163.601 68.6675 162.371 69.4009 161.11 70.1645C159.413 71.2241 157.446 72.4401 155.168 73.8429C154.571 74.2086 154.026 74.5442 153.579 74.8214C153.153 75.0891 152.74 75.3512 152.344 75.6019C152.259 75.6566 152.153 75.6736 152.054 75.6491C151.956 75.6245 151.87 75.5623 151.819 75.4737C151.692 75.2531 151.797 75.0966 151.942 74.976L151.941 74.9741C151.942 74.9722 151.948 74.9684 151.959 74.9628C152.016 74.9175 152.079 74.8779 152.138 74.8402C152.27 74.7554 152.465 74.6328 152.713 74.4782C152.893 74.367 153.101 74.2388 153.332 74.0955C154.976 73.0623 157.855 71.2637 160.775 69.4952C163.792 67.6117 167.007 65.5699 168.971 64.2143C168.225 64.6159 167.32 65.1193 166.299 65.6999C164.72 66.7369 162.557 68.0906 159.588 69.8723C154.361 73.0058 149.128 75.9545 149.077 75.9846C148.899 76.0846 148.676 76.0242 148.572 75.8508C148.467 75.6773 148.524 75.4511 148.697 75.3455C148.75 75.3135 154.075 72.0404 159.453 68.8391C162.231 67.1856 164.339 65.9564 165.941 65.0457C166.545 64.6498 167.095 64.2803 167.577 63.9447C165.489 65.1551 162.517 66.8764 159.54 68.5978C148.475 74.9911 148.45 74.9816 148.234 74.9232C148.138 74.8987 148.056 74.8346 148.005 74.7497C147.958 74.6687 147.912 74.5367 147.95 74.3632C147.176 74.6856 146.638 74.8157 146.337 74.7441C146.123 74.6932 146.011 74.5668 145.956 74.4726C145.905 74.3821 145.854 74.2331 145.909 74.0333C145.937 73.9334 145.975 73.792 146.218 73.5205C146.112 73.5374 146.024 73.5374 145.958 73.5205C145.827 73.4884 145.721 73.4111 145.659 73.3018C145.481 72.9963 145.742 72.8172 145.994 72.6438C146.146 72.5401 146.367 72.3911 146.653 72.2026C147.217 71.8274 148.028 71.2995 149.001 70.666C150.153 69.9175 151.609 68.9748 153.351 67.8512C149.526 70.091 146.028 72.0461 144.646 72.8153C144.468 72.9153 144.242 72.853 144.14 72.6758C144.038 72.5005 144.097 72.2742 144.273 72.1705C144.328 72.1385 149.78 68.8938 155.226 65.7094C157.296 64.499 158.989 63.5148 160.375 62.7154C161.803 61.8104 163.036 60.9941 163.996 60.3134C162.053 61.505 159.321 63.1717 156.569 64.8157C146.11 71.0695 145.604 70.9432 145.301 70.8677C145.185 70.8395 145.089 70.7678 145.032 70.6698C144.981 70.5793 144.93 70.4322 144.983 70.2343C145.004 70.1551 145.049 70.0665 145.114 69.9703C144.4 70.238 144.195 70.1909 144.061 70.1588C143.911 70.123 143.79 70.0363 143.718 69.9138C143.572 69.663 143.527 69.5838 144.621 68.8372C144.091 69.0371 143.731 69.1068 143.527 69.0578C143.335 69.0107 143.235 68.8975 143.184 68.8108C143.135 68.726 143.121 68.6242 143.146 68.528C143.172 68.4318 143.235 68.3508 143.322 68.3018C151.59 63.6015 160.478 58.1886 162.752 56.2222C160.082 57.4628 152.056 62.3892 147.473 65.2022C142.343 68.3508 142.341 68.3508 142.102 68.2923C142.004 68.2678 141.919 68.2037 141.868 68.117C141.765 67.9417 141.824 67.7173 141.998 67.6136C146.399 64.9646 152.482 61.226 156.611 58.5525C155.329 59.333 153.95 60.1815 152.681 60.9639C144.447 66.0412 142.555 67.1083 142.03 66.9763C141.917 66.9481 141.822 66.8783 141.765 66.7803C141.667 66.6087 141.718 66.39 141.885 66.2825C143.737 65.0797 145.867 63.6939 147.967 62.3214C143.284 65.1834 142.208 65.7471 141.826 65.6528C141.716 65.6245 141.625 65.5585 141.57 65.4624C141.233 64.8817 141.856 64.3519 149.772 59.5819C152.083 58.1905 154.787 56.5597 156.308 55.5265C153.601 56.899 147.884 60.551 145.424 62.1196C142.958 63.6939 142.96 63.692 142.765 63.6449C142.667 63.6204 142.58 63.5563 142.529 63.4696C142.339 63.1415 142.434 63.0774 143.591 62.3044C144.193 61.9009 145.04 61.3447 146.007 60.7075C146.979 60.0683 148.21 59.2576 149.458 58.4281C144.979 61.1015 144.661 61.2109 144.401 61.1449C144.305 61.1204 144.212 61.0506 144.161 60.9639C144.07 60.8074 144.106 60.6076 144.246 60.4926L147.314 57.9586C147.291 57.9567 147.269 57.9492 147.24 57.9435L147.333 57.5834L147.657 57.3987L147.333 57.5834L147.166 57.2516C147.208 57.229 147.452 57.08 147.71 56.9217C150.496 55.2173 150.566 55.2361 150.776 55.2889C150.874 55.3134 150.963 55.3813 151.014 55.468C151.105 55.6245 151.069 55.8244 150.929 55.9394L147.691 58.6147C148.844 57.9341 150.109 57.1724 151.153 56.5465C155.552 53.9051 155.567 53.907 155.798 53.9673C155.895 53.9918 155.982 54.0578 156.031 54.1426C156.15 54.3481 156.236 54.4952 155.435 55.157C156.773 54.4518 157.514 54.1916 157.834 54.2671C157.97 54.301 158.082 54.3802 158.146 54.4933C158.33 54.81 158.239 55.0966 156.813 56.0808C158.061 55.3757 158.512 55.2097 158.728 55.2644C158.838 55.2927 158.929 55.3587 158.983 55.4548C159.186 55.8055 159.186 55.8055 156.313 57.7211C155.556 58.2263 154.63 58.8391 153.545 59.5536C159.83 55.6867 161.161 54.9514 161.574 55.0551C161.684 55.0834 161.773 55.1494 161.828 55.2437C161.925 55.4096 162.006 55.5529 161.502 56.0242C162.773 55.37 163.426 55.14 163.688 55.2041C163.809 55.2343 163.907 55.3078 163.966 55.4096C164.015 55.4925 164.061 55.6321 164.011 55.8168C163.964 55.9941 163.885 56.2882 162.646 57.2478C163.157 56.9217 163.466 56.7275 163.663 56.6143C163.75 56.5597 163.797 56.5295 163.801 56.5257L163.807 56.5352C163.974 56.4503 164.017 56.4616 164.089 56.4786C164.188 56.5031 164.275 56.5653 164.326 56.6539C164.426 56.8255 164.371 57.0461 164.203 57.1536C163.231 57.7701 162.195 58.4262 161.127 59.103C160.006 59.8195 158.946 60.4944 157.944 61.1279C153.376 64.0389 148.753 67.0008 146.235 68.6562C146.689 68.4281 147.208 68.1528 147.784 67.838C149.689 66.5974 152.503 64.9684 156.048 62.9379C158.834 61.2109 161.828 59.2991 164.703 57.4175C164.788 57.3609 164.894 57.3421 164.994 57.3666C165.095 57.3911 165.18 57.4533 165.231 57.5419C165.292 57.6475 165.307 57.7738 165.275 57.9002C165.095 58.5695 162.758 59.9571 156.622 63.4677C156.508 63.5318 156.395 63.5978 156.277 63.6637C155.974 63.8523 155.669 64.0389 155.364 64.2275C152.115 66.2297 149.823 67.5665 148.198 68.4545C147.38 68.9824 146.706 69.4499 146.263 69.8119C149.388 68.3263 159.75 62.0744 166.369 57.9699C166.454 57.9171 166.559 57.9002 166.657 57.9247C166.756 57.9492 166.839 58.0114 166.89 58.1C166.943 58.1924 166.994 58.3451 166.937 58.5525C166.875 58.7806 166.606 59.103 166.174 59.4971C166.68 59.2614 166.759 59.2821 166.841 59.3029C166.937 59.3274 167.028 59.3953 167.077 59.482C167.178 59.6536 167.123 59.8723 166.956 59.9797C164.86 61.324 161.493 63.4846 158.074 65.683C159.997 64.5536 161.89 63.4658 163.513 62.5419C167.399 60.1438 168.187 59.7497 168.509 59.827C168.608 59.8515 168.71 59.9269 168.761 60.0137C168.81 60.1004 168.824 60.2022 168.797 60.2984C168.77 60.3945 168.706 60.4756 168.619 60.5246C167.108 61.3598 165.579 62.2158 164.07 63.0717C162.852 63.8221 161.497 64.6668 160.158 65.502C154.607 68.9654 150.929 71.2165 148.685 72.4288C147.714 73.1151 147.045 73.6524 146.765 73.9937C147.161 73.907 148.077 73.5619 150.194 72.393C151.391 71.6181 153.081 70.6302 155.296 69.3708C158.061 67.6588 160.993 65.7678 163.265 64.2991C167.975 61.258 168.002 61.2618 168.259 61.324C168.36 61.3485 168.45 61.4145 168.5 61.5031C168.551 61.5898 168.6 61.735 168.547 61.9254C168.452 62.2723 167.928 62.7607 166.943 63.4413C168.14 62.7475 169.206 62.1272 170.07 61.6275C170.155 61.5785 170.257 61.5634 170.354 61.5898C170.45 61.6143 170.532 61.6784 170.581 61.7633C170.63 61.8481 170.678 61.9895 170.626 62.1781C170.598 62.2837 170.558 62.4288 170.289 62.7192C170.981 62.4137 171.115 62.4458 171.221 62.4741C171.335 62.5024 171.427 62.5721 171.484 62.6683C171.623 62.9077 171.736 63.1019 170.17 64.2576C170.592 64.1087 170.721 64.1407 170.821 64.1653C170.946 64.1954 171.051 64.2708 171.111 64.3764C171.331 64.7535 171.132 64.9364 169.183 66.1562C168.028 66.8783 166.394 67.8625 164.661 68.9051C161.273 70.9432 156.095 74.0578 153.834 75.7169C155.811 74.6366 159.415 72.3911 162.248 70.6264C169.187 66.3033 170.581 65.5058 171.047 65.6208C171.159 65.649 171.251 65.7169 171.306 65.8131C171.528 66.1939 171.28 66.3862 169.642 67.4194C169.517 67.4986 169.386 67.5797 169.248 67.6664C169.685 67.5156 169.928 67.4967 170.081 67.5325C170.231 67.5683 170.35 67.6532 170.422 67.7757C170.545 67.9869 170.67 68.2037 169.825 68.956C170.392 68.6392 170.507 68.6392 170.643 68.6713C170.742 68.6958 170.838 68.7656 170.89 68.8542C171.068 69.1634 171.068 69.1634 169.197 70.5001C168.293 71.1449 167.106 71.9895 165.901 72.8436C166.216 72.6419 166.515 72.4496 166.792 72.2724C169.837 70.3116 169.986 70.2437 170.244 70.3059C170.344 70.3304 170.437 70.3983 170.488 70.4869C170.59 70.6641 170.53 70.8923 170.352 70.9941C170.297 71.0261 170.238 71.0412 170.179 71.0431C169.84 71.192 168.439 72.0951 167.197 72.8964C162.621 75.8432 160.892 76.8632 160.307 76.7237C160.178 76.6935 160.074 76.6162 160.012 76.5088C159.915 76.3429 159.963 76.1298 160.12 76.0205C160.544 75.7207 160.993 75.4058 161.455 75.0797C158.582 76.85 157.054 77.6551 156.433 77.6551ZM169.842 70.8659C169.852 70.8809 169.861 70.896 169.871 70.9092C169.861 70.896 169.852 70.8809 169.842 70.8659Z" fill="#F38242"/>
<path d="M232.78 83.0002C232.738 83.0002 232.7 82.9965 232.668 82.9889C232.522 82.955 232.403 82.8702 232.335 82.7514C232.153 82.4365 232.416 82.2744 232.694 82.1028L233.35 81.7012C240.194 77.5082 243.663 75.2438 245.386 74.0278C242.224 75.7359 235.918 79.5802 231.704 82.2235C231.619 82.2781 231.515 82.2951 231.416 82.2706C231.318 82.2461 231.232 82.1839 231.183 82.0953C231.009 81.7974 231.272 81.607 231.463 81.4693C231.583 81.3826 231.761 81.2582 231.986 81.1036C232.433 80.7944 233.077 80.3588 233.85 79.8404C235.001 79.0655 236.539 78.038 238.431 76.7785C234.666 78.9505 230.712 81.2374 228.392 82.5798C228.218 82.6816 227.992 82.6251 227.886 82.4535C227.78 82.2819 227.829 82.0576 227.998 81.9463L230.373 80.3947C228.384 81.541 227.233 82.0538 226.771 81.9425C226.629 81.9086 226.511 81.8238 226.443 81.705C226.257 81.3845 226.547 81.1978 226.852 81.0018C227.004 80.9056 227.208 80.7755 227.462 80.619C225.657 81.5051 225.347 81.4316 225.165 81.3883C225.025 81.3543 224.909 81.2714 224.843 81.1564C224.741 80.981 224.799 80.7567 224.974 80.653C225.409 80.3909 225.86 80.1213 226.322 79.8423C224.438 80.7849 224.14 80.7133 223.951 80.6662C223.816 80.6341 223.707 80.5549 223.642 80.4418C223.589 80.3513 223.538 80.2024 223.593 80.0025C223.65 79.797 223.854 79.5368 224.199 79.2257C224.125 79.2314 224.063 79.2276 224.011 79.2144C223.879 79.1824 223.769 79.1032 223.705 78.9919C223.551 78.728 223.536 78.5489 224.5 77.8739C223.385 78.3886 223.176 78.3377 223.034 78.3019C222.907 78.2717 222.803 78.1944 222.743 78.0889C222.534 77.7306 222.887 77.4912 223.419 77.1292C223.515 77.0632 223.625 76.9897 223.746 76.9105C222.699 77.4007 222.513 77.3554 222.379 77.3215C222.258 77.2913 222.159 77.2197 222.101 77.1179C222.051 77.033 222.036 76.9237 222.063 76.8275C222.131 76.5768 222.14 76.5447 226.952 73.8015C230.526 71.7653 236.953 68.1021 240.184 65.8528C238.118 67.0689 235.033 68.8826 231.954 70.6775C221.042 77.0387 220.87 76.9972 220.637 76.935C220.54 76.9105 220.453 76.8445 220.402 76.7578C220.15 76.3223 220.15 76.3223 226.655 72.4667C228.896 71.1394 231.994 69.303 234.779 67.5873C233.656 68.2529 232.475 68.9524 231.293 69.6481C220.372 76.0753 220.053 75.9942 219.802 75.9301C219.705 75.9056 219.607 75.834 219.557 75.7472C219.457 75.5738 219.512 75.3532 219.682 75.2476C225.975 71.3091 234.916 65.668 238.236 63.4754C237.976 63.5904 237.688 63.7299 237.37 63.8883C236.062 64.8724 233.742 66.4316 229.6 68.9618C225.117 71.7012 220.633 74.2672 220.588 74.2936C220.413 74.3935 220.192 74.3389 220.086 74.1692C219.98 73.9995 220.027 73.777 220.192 73.6639C221.464 72.8023 224.977 70.4418 228.695 68.0983C225.085 70.1797 221.373 72.3253 219.158 73.6073C219.073 73.6564 218.968 73.6714 218.874 73.645C218.777 73.6205 218.696 73.5564 218.646 73.4716C218.459 73.1492 218.734 72.9682 219.148 72.6948C219.309 72.5892 219.518 72.4554 219.766 72.297C219.241 72.5251 218.877 72.61 218.648 72.5553C218.499 72.5195 218.376 72.4327 218.302 72.3064C218.201 72.1349 218.256 71.9143 218.425 71.8068C223.059 68.8581 229.301 64.8536 233.054 62.38C231.005 63.5998 228.428 65.2514 226.415 66.541C221.006 70.0063 220.059 70.5549 219.643 70.4569C219.531 70.4305 219.438 70.3607 219.381 70.2646C219.163 69.8875 219.438 69.7159 220.758 68.8826C221.561 68.3754 222.661 67.7061 223.934 66.9294C226.487 65.3739 230.304 63.0455 232.283 61.6428C229.596 63.0738 224.169 66.4165 220.569 68.7073C220.483 68.7619 220.377 68.7789 220.279 68.7544C220.18 68.7299 220.095 68.6677 220.044 68.5791C219.845 68.2378 219.87 68.0285 222.339 66.3355C221.762 66.6409 221.5 66.705 221.32 66.6635C221.205 66.6352 221.108 66.5655 221.052 66.4655C220.891 66.1884 221.076 66.0357 221.385 65.7793C221.546 65.6454 221.777 65.4569 222.053 65.2306C222.485 64.88 223.03 64.4388 223.601 63.9787C223.583 63.9769 223.566 63.9731 223.551 63.9693C223.451 63.9448 223.351 63.8713 223.299 63.7846C223.197 63.6073 223.258 63.3792 223.436 63.2774C223.5 63.2397 223.568 63.2246 223.64 63.2284C223.905 63.1134 224.744 62.5723 225.311 62.2046C226.896 61.179 227.108 61.0677 227.354 61.1281C227.454 61.1526 227.551 61.2242 227.602 61.3128C227.695 61.4712 227.657 61.6729 227.513 61.7879C226.676 62.461 225.676 63.2642 224.741 64.0183C225.271 63.6809 225.805 63.3396 226.292 63.0285C230.356 60.4248 231.2 59.9497 231.607 60.0496C231.723 60.0779 231.818 60.1477 231.876 60.2476C232.075 60.5926 231.899 60.8113 230.515 61.7785C233.459 60.1081 233.757 60.1797 233.956 60.2269C234.075 60.2551 234.173 60.3287 234.232 60.4286C234.302 60.5493 234.333 60.6737 234.261 60.8377C235.516 60.1552 236.251 59.88 236.592 59.961C236.73 59.995 236.844 60.076 236.912 60.1929C237.107 60.5285 236.866 60.6982 236.069 61.2544C236.058 61.2619 236.048 61.2695 236.037 61.277C236.785 60.9018 237.272 60.751 237.544 60.8151C237.69 60.849 237.809 60.9339 237.88 61.0564C238.056 61.3581 238.162 61.5429 235.376 63.3962C235.401 63.3811 235.427 63.3679 235.452 63.3528C236.38 62.8211 237.154 62.38 237.698 62.0726C237.97 61.918 238.186 61.7974 238.332 61.7163C238.575 61.5824 238.878 61.4165 239.063 61.737C239.112 61.8238 239.162 61.9633 239.111 62.1518C239.092 62.2216 239.069 62.3102 238.974 62.4478C239.307 62.3536 239.565 62.3196 239.734 62.3592C239.955 62.4101 240.071 62.5383 240.127 62.6364C240.323 62.972 240.127 63.1039 239.19 63.7355C238.679 64.0806 237.923 64.5764 236.942 65.2099C235.652 66.0432 233.961 67.1254 231.897 68.4358C235.207 66.4825 238.688 64.4067 241.616 62.6439C241.701 62.593 241.805 62.5779 241.902 62.6024C241.999 62.6269 242.082 62.6892 242.133 62.7759C242.37 63.185 242.038 63.6186 240.768 64.567C240.572 64.7122 240.359 64.8668 240.122 65.0327C240.874 64.5896 241.605 64.1579 242.303 63.745C242.389 63.6941 242.491 63.6809 242.589 63.7054C242.686 63.7299 242.767 63.794 242.819 63.8788C242.872 63.9712 242.925 64.1258 242.868 64.3332C242.811 64.5425 242.614 64.8064 242.281 65.1288C242.512 64.9837 242.741 64.8422 242.964 64.7027C243.05 64.6499 243.154 64.633 243.252 64.6575C243.351 64.682 243.434 64.7442 243.485 64.8328C243.826 65.4211 243.337 65.964 230.854 73.449C229.738 74.1183 228.61 74.7951 227.579 75.4173C232.223 72.7947 239.489 68.3302 244.57 65.1194C244.655 65.0647 244.76 65.0478 244.86 65.0723C244.958 65.0968 245.044 65.159 245.095 65.2476C245.244 65.504 245.188 65.7887 244.502 66.3732C244.934 66.1865 245.201 66.13 245.368 66.1695C245.493 66.1997 245.595 66.2751 245.655 66.3807C245.72 66.4901 245.735 66.622 245.699 66.7521C245.494 67.4969 242.724 69.1183 235.967 72.9173C231.685 75.3249 225.994 78.5263 224.614 79.8215C227.363 78.7959 238.811 71.7597 245.981 67.1782C246.066 67.1235 246.172 67.1066 246.271 67.1292C246.369 67.1537 246.455 67.2159 246.506 67.3045C246.758 67.7382 246.922 68.0229 236.012 74.7932C234.516 75.7227 233.009 76.6484 231.621 77.4968C236.221 74.8177 242.373 70.9678 246.835 68.0926C246.92 68.0379 247.026 68.0191 247.125 68.0436C247.225 68.0681 247.311 68.1303 247.362 68.2189C247.494 68.449 247.5 68.6997 246.619 69.4294C247.5 68.9524 247.943 68.8015 248.174 68.8562C248.295 68.8845 248.394 68.958 248.452 69.0598C248.551 69.2314 248.5 69.4482 248.333 69.5557L239.781 75.142C245.269 71.9765 247.038 70.9622 247.67 70.6511C247.739 70.6058 247.775 70.5832 247.775 70.5832L247.784 70.5983C247.983 70.5078 248.023 70.5191 248.078 70.5342C248.22 70.5719 248.326 70.6888 248.35 70.834C248.375 70.9791 248.31 71.1224 248.189 71.2035C246.958 72.0161 245.606 72.9116 244.222 73.8298C246.936 72.3234 247.203 72.3894 247.388 72.4346C247.504 72.4629 247.6 72.5346 247.659 72.6326C247.797 72.8702 247.926 73.0926 246.114 74.4199C246.364 74.2691 246.508 74.1843 246.513 74.1805C246.687 74.0768 246.911 74.1296 247.021 74.3011C247.129 74.4708 247.081 74.6971 246.913 74.8083C246.676 74.9667 246.398 75.1533 246.081 75.3607C247.53 74.616 247.767 74.6726 247.922 74.7103C248.049 74.7404 248.151 74.8159 248.214 74.9214C248.398 75.2363 248.481 75.3796 244.739 78.0606C245.034 77.8871 245.32 77.7193 245.593 77.5591C245.771 77.4554 246 77.5138 246.104 77.6892C246.208 77.8664 246.15 78.0945 245.974 78.1982C238.135 82.8098 238.065 82.7872 237.866 82.7363C237.77 82.7118 237.686 82.6477 237.637 82.5609C237.465 82.2631 237.65 82.133 238.101 81.8162C238.33 81.656 238.66 81.426 239.061 81.1469C240.453 80.1778 243.818 77.8306 245.881 76.3053C243.443 77.6307 239.16 80.2721 235.266 82.7929C235.179 82.8494 235.075 82.8664 234.975 82.8419C234.874 82.8174 234.789 82.7551 234.738 82.6665C234.683 82.5704 234.626 82.4742 234.664 82.3272C233.793 82.7457 233.128 83.0002 232.78 83.0002ZM235.584 62.3517C233.73 63.4169 230.857 65.3174 228.541 66.8521C231.204 65.1948 233.91 63.4867 235.584 62.3517Z" fill="#F38242"/>
<path d="M243.591 55.53C243.756 51.1446 240.702 44.921 235.683 44.6948C233.429 44.5929 231.318 46.269 229.973 47.915C228.42 49.8135 227.356 52.0364 226.966 54.4591C226.663 56.3312 229.549 57.0684 229.854 55.1849C230.125 53.5107 230.706 51.9742 231.67 50.5733C232.49 49.3818 233.785 47.8754 235.319 47.6736C237.041 47.4474 238.522 49.3686 239.311 50.6242C240.268 52.1476 240.683 53.8086 240.614 55.5978C240.542 57.5021 243.519 57.4323 243.591 55.53Z" fill="#3F414E"/>
<path d="M243.86 55.5245C243.936 51.897 242.3 47.8077 239.255 45.6791C235.295 42.9095 231.195 45.4472 228.843 48.9973C227.847 50.5 226.345 53.1791 226.705 55.0626C226.917 56.1655 228.277 56.9064 229.309 56.3861C229.786 56.1466 229.977 55.7394 230.115 55.2492C230.528 53.7767 230.82 52.4155 231.653 51.0882C232.413 49.8759 233.558 48.3808 235.02 48.0056C236.734 47.5663 238.09 49.25 238.916 50.5037C239.849 51.9215 240.304 53.4657 240.353 55.1568C240.374 55.8997 240.372 56.5878 241.084 57.0177C242.268 57.7304 243.705 56.8838 243.857 55.5961C243.896 55.2568 243.372 55.121 243.332 55.4641C243.228 56.3635 242.228 57.1195 241.347 56.5463C240.586 56.0505 240.904 54.5497 240.781 53.773C240.522 52.1289 239.774 50.6263 238.73 49.3348C237.893 48.2997 236.717 47.2383 235.28 47.408C233.74 47.589 232.524 48.9389 231.67 50.1097C231.142 50.8337 230.695 51.6104 230.35 52.4362C229.968 53.3544 229.937 54.4555 229.525 55.3303C228.996 56.4483 227.491 56.0411 227.252 54.9344C227.042 53.969 227.672 52.5701 228.036 51.6783C229.629 47.7756 233.772 43.2168 238.319 45.7243C241.652 47.5626 243.4 51.8876 243.323 55.5377C243.313 55.8827 243.855 55.8714 243.86 55.5245Z" fill="#3F414E"/>
<path d="M166.711 49.5314C166.876 45.146 163.822 38.9205 158.803 38.6962C156.549 38.5944 154.438 40.2705 153.093 41.9164C151.54 43.815 150.476 46.0378 150.086 48.4605C149.783 50.3327 152.669 51.0699 152.974 49.1864C153.245 47.5122 153.826 45.9756 154.79 44.5748C155.61 43.3832 156.905 41.8768 158.439 41.6751C160.161 41.4488 161.642 43.37 162.431 44.6257C163.388 46.1491 163.803 47.8101 163.734 49.5993C163.664 51.5035 166.641 51.4319 166.711 49.5314Z" fill="#3F414E"/>
<path d="M166.982 49.5254C167.058 45.898 165.422 41.8086 162.377 39.6801C158.417 36.9104 154.317 39.4482 151.965 42.9983C150.969 44.5009 149.467 47.1801 149.827 49.0635C150.039 50.1665 151.398 50.9074 152.431 50.3871C152.908 50.1476 153.099 49.7404 153.237 49.2502C153.65 47.7777 153.942 46.4165 154.775 45.0892C155.534 43.8769 156.68 42.3818 158.142 42.0066C159.856 41.5673 161.212 43.2509 162.038 44.5047C162.971 45.9225 163.426 47.4666 163.475 49.1578C163.496 49.9006 163.492 50.5888 164.206 51.0187C165.39 51.7313 166.827 50.8848 166.979 49.5971C167.018 49.2577 166.494 49.122 166.454 49.4651C166.348 50.3644 165.35 51.1205 164.469 50.5473C163.708 50.0515 164.026 48.5507 163.903 47.7739C163.644 46.1299 162.896 44.6273 161.852 43.3358C161.015 42.3007 159.839 41.2393 158.402 41.4089C156.862 41.5899 155.646 42.9399 154.792 44.1107C154.264 44.8347 153.817 45.6114 153.472 46.4372C153.09 47.3554 153.059 48.4564 152.646 49.3313C152.118 50.4493 150.613 50.042 150.374 48.9353C150.164 47.97 150.794 46.5711 151.158 45.6793C152.751 41.7785 156.894 37.2197 161.441 39.7253C164.774 41.5635 166.522 45.8886 166.444 49.5386C166.435 49.8837 166.975 49.8705 166.982 49.5254Z" fill="#3F414E"/>
</g>
<path d="M384.48 208.795C366.033 208.795 350.044 219.317 342.18 234.681C334.833 222.431 321.425 214.239 306.099 214.239C297.176 214.239 288.908 217.018 282.101 221.761C274.199 215.038 263.951 210.973 252.759 210.973C237.669 210.973 224.3 218.358 216.062 229.702C208.76 221.548 198.155 216.416 186.354 216.416C176.197 216.416 166.932 220.216 159.889 226.466C155.405 224.22 150.342 222.949 144.982 222.949C135.397 222.949 126.763 226.999 120.687 233.471C114.383 226.352 105.171 221.86 94.908 221.86C87.0127 221.86 79.7342 224.525 73.9251 228.994C66.8674 219.386 55.4928 213.15 42.6564 213.15C33.4441 213.15 24.9855 216.363 18.3312 221.731C13.4434 215.876 6.98711 211.369 -0.390381 208.856V242.242C-0.276178 242.242 -0.169589 242.234 -0.0553863 242.234C1.66527 242.234 3.34785 242.401 4.97715 242.698C11.403 243.878 17.0522 247.259 21.1178 252.048C22.9146 249.421 25.2519 247.198 27.97 245.531C31.3884 243.437 35.4007 242.234 39.7024 242.234C48.0925 242.234 55.4091 246.832 59.2843 253.639C59.7183 253.449 60.1675 253.274 60.6243 253.121C62.4059 252.512 64.3169 252.17 66.3116 252.17C69.6006 252.17 72.6841 253.076 75.3184 254.659C77.0238 252.634 79.0642 250.906 81.3559 249.551C84.8353 247.502 88.8857 246.322 93.2102 246.322C100.527 246.322 107.059 249.688 111.353 254.948C111.467 254.857 111.574 254.773 111.688 254.682C115.259 252.002 119.69 250.411 124.494 250.411C126.009 250.411 127.486 250.571 128.91 250.868C133.432 251.819 137.429 254.202 140.399 257.522C142.119 254.636 144.35 252.101 146.969 250.015C151.712 246.239 157.719 243.97 164.252 243.97C168.858 243.97 173.198 245.097 177.02 247.084C180.545 248.911 183.628 251.469 186.065 254.568C189.757 252.299 194.097 250.989 198.749 250.989C199.441 250.989 200.119 251.028 200.797 251.081C203.081 248.911 205.73 247.129 208.646 245.827C212.141 244.267 216.016 243.384 220.089 243.384C221.483 243.384 222.845 243.49 224.178 243.68C228.67 244.335 232.804 246.056 236.337 248.576C242.001 243.186 249.66 239.874 258.088 239.874C261.126 239.874 264.065 240.315 266.844 241.115C273.376 242.995 279.041 246.931 283.091 252.177C286.434 250.662 290.141 249.817 294.047 249.817C295.258 249.817 296.453 249.908 297.618 250.061C305.574 251.126 312.411 255.71 316.53 262.204C321.09 256.776 327.92 253.327 335.564 253.327C336.066 253.327 336.561 253.35 337.056 253.372C341.076 253.609 344.837 254.804 348.111 256.73C350.943 258.39 353.417 260.598 355.389 263.202C359.835 253.578 369.573 246.893 380.871 246.893C387.366 246.893 393.342 249.109 398.101 252.809C398.55 253.159 398.984 253.517 399.41 253.89C402.273 252.771 405.387 252.154 408.646 252.154C410.305 252.154 411.935 252.322 413.511 252.626V228.05V218.708C405.509 212.503 395.429 208.795 384.48 208.795Z" fill="#3B3A55"/>
<path d="M399.441 252.657C399.015 252.284 398.581 251.926 398.131 251.576C393.373 247.868 387.396 245.66 380.902 245.66C369.604 245.66 359.866 252.345 355.42 261.968C353.448 259.365 350.973 257.157 348.141 255.497C344.86 253.571 341.099 252.375 337.086 252.139C336.591 252.109 336.096 252.094 335.594 252.094C327.95 252.094 321.121 255.543 316.56 260.971C312.449 254.484 305.612 249.901 297.648 248.828C296.476 248.668 295.288 248.584 294.078 248.584C290.172 248.584 286.464 249.429 283.122 250.944C279.071 245.698 273.407 241.762 266.874 239.882C264.096 239.082 261.157 238.641 258.119 238.641C249.683 238.641 242.032 241.953 236.367 247.343C232.834 244.823 228.693 243.11 224.208 242.447C222.876 242.249 221.506 242.15 220.12 242.15C216.039 242.15 212.171 243.026 208.677 244.594C205.761 245.896 203.111 247.678 200.827 249.848C200.15 249.794 199.472 249.756 198.779 249.756C194.127 249.756 189.788 251.066 186.095 253.335C183.659 250.244 180.575 247.678 177.05 245.851C173.228 243.864 168.889 242.737 164.282 242.737C157.742 242.737 151.743 244.998 147 248.782C144.381 250.868 142.15 253.403 140.429 256.289C137.46 252.969 133.463 250.586 128.94 249.635C127.517 249.338 126.04 249.178 124.525 249.178C119.72 249.178 115.282 250.769 111.719 253.449C111.604 253.533 111.498 253.624 111.384 253.715C107.097 248.454 100.565 245.089 93.2407 245.089C88.9162 245.089 84.8658 246.269 81.3864 248.317C79.0948 249.665 77.0543 251.401 75.3489 253.426C72.7146 251.85 69.6388 250.936 66.3421 250.936C64.3474 250.936 62.4364 251.271 60.6548 251.881C60.198 252.033 59.7564 252.208 59.3148 252.398C55.4472 245.584 48.1306 240.993 39.7329 240.993C35.4313 240.993 31.4189 242.196 28.0005 244.29C25.2824 245.957 22.9451 248.18 21.1483 250.807C17.0827 246.026 11.4335 242.638 5.00766 241.458C3.37076 241.161 1.69579 240.993 -0.0248687 240.993C-0.139071 240.993 -0.253274 241.001 -0.359863 241.001V274.356C-0.245661 274.356 -0.139071 274.348 -0.0248687 274.348C4.61176 274.348 8.81442 276.183 11.9207 279.16C12.1796 277.934 12.5298 276.746 12.9638 275.597C14.0449 272.734 15.6514 270.13 17.6537 267.892C19.8388 265.455 22.5035 263.461 25.4956 262.052C25.9144 261.854 26.3483 261.672 26.7823 261.496C29.6145 260.362 32.698 259.73 35.9338 259.73C40.9206 259.73 45.5648 261.222 49.4401 263.78C53.2469 266.293 56.3151 269.841 58.2413 274.021C58.8047 273.777 59.3758 273.564 59.9696 273.381C61.6141 272.871 63.3576 272.597 65.1696 272.597C65.2153 272.597 65.2686 272.597 65.3143 272.605C67.073 272.62 68.7632 272.886 70.3621 273.381C70.6133 273.457 70.8646 273.541 71.1082 273.632C72.9659 268.448 76.1483 263.895 80.2368 260.37C80.6098 260.05 80.9905 259.738 81.3712 259.433C86.7311 255.223 93.4919 252.71 100.831 252.71C104.265 252.71 107.569 253.266 110.668 254.279C111.003 254.393 111.346 254.5 111.673 254.621C111.863 254.69 112.046 254.766 112.229 254.842C117.642 256.944 122.34 260.484 125.826 265.014C126.565 264.725 127.326 264.473 128.095 264.253C130.395 263.598 132.816 263.24 135.328 263.24C136.044 263.24 136.744 263.278 137.445 263.331C140.155 263.544 142.751 264.169 145.172 265.151C146.215 265.57 147.228 266.057 148.203 266.605C153.167 269.399 157.133 273.754 159.44 279.008C162.973 275.901 167.541 273.96 172.573 273.777C172.832 273.769 173.084 273.754 173.342 273.754C173.738 273.754 174.127 273.769 174.515 273.792C180.667 274.127 186.11 277.112 189.742 281.619C190.854 282.997 191.79 284.512 192.528 286.141C193.267 284.954 194.104 283.842 195.049 282.822C199.167 278.33 205.076 275.513 211.646 275.513C211.882 275.513 212.126 275.521 212.362 275.528C214.927 275.612 217.379 276.114 219.663 276.982C220.698 277.378 221.696 277.843 222.655 278.383C223.683 278.962 224.658 279.617 225.579 280.34C226.081 279.183 226.66 278.056 227.299 276.982C231.571 269.78 238.727 264.496 247.178 262.715C249.203 262.288 251.305 262.06 253.459 262.06C257.594 262.06 261.537 262.89 265.131 264.382C266.479 264.938 267.773 265.592 269.014 266.339C275.287 270.084 280.099 276.023 282.391 283.096C284.188 281.269 286.281 279.738 288.588 278.574C289.799 277.964 291.063 277.462 292.387 277.066C294.504 276.434 296.75 276.092 299.072 276.092C303.381 276.092 307.416 277.264 310.881 279.297C313.835 281.033 316.377 283.393 318.319 286.202C319.408 287.778 320.306 289.491 320.991 291.311H327.394H328.072C328.224 291.075 328.384 290.839 328.551 290.611C330.638 287.656 333.493 285.281 336.827 283.774C339.401 282.609 342.256 281.946 345.271 281.946C345.309 281.946 345.347 281.946 345.385 281.946C348.849 281.962 352.115 282.845 354.97 284.383C356.219 285.053 357.384 285.852 358.457 286.758C358.572 286.857 358.686 286.948 358.792 287.047C362.934 280.469 370.251 276.092 378.603 276.092C380.209 276.092 381.77 276.251 383.285 276.564C383.521 276.609 383.757 276.67 383.993 276.723C387.769 271.409 393.274 267.412 399.692 265.554C402.151 264.846 404.74 264.443 407.412 264.405C407.549 264.405 407.694 264.397 407.831 264.397C409.795 264.397 411.714 264.595 413.572 264.961V251.386C411.996 251.081 410.374 250.914 408.707 250.914C405.418 250.921 402.304 251.538 399.441 252.657Z" fill="#64637D"/>
<path d="M407.382 263.62C404.702 263.659 402.113 264.054 399.662 264.77C393.243 266.628 387.739 270.625 383.963 275.939C383.727 275.886 383.491 275.825 383.255 275.779C381.739 275.475 380.179 275.307 378.572 275.307C370.228 275.307 362.904 279.685 358.762 286.263C358.648 286.164 358.541 286.065 358.427 285.974C357.353 285.068 356.189 284.268 354.94 283.598C352.085 282.06 348.819 281.177 345.354 281.162C345.316 281.162 345.278 281.162 345.24 281.162C342.233 281.162 339.37 281.817 336.797 282.989C333.47 284.497 330.615 286.872 328.521 289.826C328.353 290.055 328.201 290.291 328.041 290.527H353.836H355.861H356.645H359.028H362.424H378.664H388.104H400.484H402.776H413.541V282.464V264.184C411.683 263.818 409.765 263.62 407.801 263.62C407.656 263.613 407.519 263.62 407.382 263.62ZM310.85 278.505C307.386 276.472 303.351 275.3 299.041 275.3C296.719 275.3 294.473 275.642 292.357 276.274C291.04 276.67 289.768 277.173 288.558 277.782C286.243 278.946 284.149 280.477 282.36 282.304C280.069 275.231 275.257 269.293 268.983 265.547C267.742 264.808 266.448 264.153 265.1 263.59C261.507 262.098 257.563 261.268 253.429 261.268C251.274 261.268 249.173 261.496 247.148 261.923C238.697 263.697 231.54 268.988 227.269 276.19C226.629 277.271 226.051 278.391 225.548 279.548C224.627 278.825 223.652 278.17 222.625 277.591C221.665 277.051 220.668 276.586 219.633 276.19C217.356 275.322 214.897 274.812 212.331 274.736C212.095 274.729 211.859 274.721 211.615 274.721C205.045 274.721 199.129 277.538 195.018 282.03C194.082 283.05 193.236 284.162 192.498 285.349C191.759 283.72 190.823 282.197 189.711 280.827C186.08 276.32 180.636 273.343 174.484 273C174.096 272.977 173.708 272.962 173.312 272.962C173.053 272.962 172.802 272.97 172.543 272.985C167.518 273.168 162.942 275.109 159.41 278.216C157.11 272.962 153.144 268.607 148.172 265.813C147.198 265.265 146.185 264.778 145.142 264.359C142.721 263.384 140.125 262.76 137.414 262.539C136.714 262.486 136.013 262.448 135.298 262.448C132.793 262.448 130.364 262.806 128.065 263.461C127.296 263.681 126.534 263.933 125.796 264.222C122.301 259.7 117.611 256.152 112.198 254.05C112.016 253.982 111.825 253.898 111.642 253.829C111.307 253.708 110.972 253.601 110.637 253.487C107.539 252.474 104.235 251.918 100.801 251.918C93.4538 251.918 86.7006 254.431 81.3407 258.641C80.9524 258.946 80.5717 259.258 80.2063 259.578C76.1178 263.103 72.9354 267.656 71.0777 272.84C70.834 272.749 70.5828 272.665 70.3315 272.589C68.7327 272.094 67.0349 271.828 65.2838 271.813C65.2381 271.813 65.1848 271.813 65.1391 271.813C63.3271 271.813 61.5836 272.087 59.9391 272.597C59.3529 272.78 58.7742 272.993 58.2108 273.236C56.2846 269.057 53.2164 265.509 49.4096 262.996C45.5343 260.438 40.8977 258.946 35.9032 258.946C32.6675 258.946 29.5764 259.578 26.7518 260.712C26.3178 260.887 25.8915 261.07 25.4651 261.268C22.473 262.676 19.8083 264.671 17.6232 267.107C15.6132 269.346 14.0144 271.95 12.9333 274.812C12.4993 275.962 12.1491 277.15 11.8902 278.368C8.79152 275.391 4.58124 273.556 -0.0553863 273.556C-0.169589 273.556 -0.283792 273.564 -0.390381 273.564V286.438V290.527H12.3775H16.1538H17.1892H47.6433H59.4366H70.0346H82.6426H88.1928H98.2351H109.069H119.713H129.291H131.605H145.865H152.573H161.572H169.802H181.74H182.669H190.138H194.089H201.604H202.921H215.795H223.066H225.617H233.131H234.631H238.628H272.927H277.145H279.932H281.622H283.822H284.85H315.251H315.334H320.976C320.298 288.707 319.392 286.994 318.304 285.418C316.347 282.601 313.804 280.241 310.85 278.505Z" fill="#7B7B91"/>
<path fill-rule="evenodd" clip-rule="evenodd" d="M256.726 174.509C256.733 170.885 256.337 167.063 256.908 163.013C257.7 157.379 261.172 151.6 258.827 147.162C258.21 147.078 257.586 146.987 256.969 146.903C257.639 145.982 260.19 146.598 260.692 147.428C262.337 143.865 263.395 141.771 266.212 139.67C269.874 136.944 275.112 136.579 275.797 129.955C276.871 131.851 275.402 135.155 274.792 137.081C276.3 135.772 277.594 134.181 277.838 131.189C281.15 129.331 284.713 127.808 285.39 122.456C286.106 123.666 286.243 125.326 285.977 127.283C287.72 119.646 295.288 117.834 294.93 108.63C298.965 114.195 299.399 129.917 291.519 132.803C293.073 132.536 294.032 131.478 295.547 131.158C292.441 136.845 289.365 142.571 282.467 143.218C284.081 143.644 287.058 142.7 288.931 142.236C286.213 143.842 283.662 150.017 279.65 151.989C281.683 152.118 283.297 152.567 283.106 154.372C282.619 153.816 282.01 153.352 281.424 152.872C273.072 153.854 261.073 159.952 258.568 169.249C258.271 170.345 258.165 171.502 258.104 172.713C258.02 174.075 256.718 177.448 256.726 174.509Z" fill="white"/>
<path fill-rule="evenodd" clip-rule="evenodd" d="M256.908 175.591C257.22 170.924 257.228 167.604 258.507 164.132C261.081 157.12 268.245 148.616 273.909 143.949C277.016 141.391 279.97 138.909 282.825 136.252C285.322 133.922 287.728 131.775 289.715 129.217C292.463 125.669 294.344 121.824 295.128 117.667C295.539 115.49 295.646 113.228 295.425 110.883L295.159 109.802L295.593 110.929C295.95 113.327 295.92 115.68 295.539 117.972C294.862 122.052 293.072 125.912 290.438 129.399C288.299 132.239 285.642 134.523 282.878 136.99C282.779 137.081 282.68 137.173 282.573 137.257C280.053 139.495 277.45 141.566 274.785 143.88C268.907 148.989 261.568 156.823 258.933 164.368C257.746 167.756 257.396 171.182 256.908 175.591Z" fill="#D1D3D4"/>
<path fill-rule="evenodd" clip-rule="evenodd" d="M257.388 163.043C258.979 158.087 260.898 153.937 260.175 148.479C261.728 153.663 259.352 158.33 257.388 163.043Z" fill="#D1D3D4"/>
<path fill-rule="evenodd" clip-rule="evenodd" d="M262.382 146.766C263.73 144.002 264.613 141.627 267.4 140.157C269.448 139.076 271.64 138.01 273.597 136.32C271.831 138.452 269.547 139.403 267.438 140.477C264.659 141.885 264.095 144.603 262.382 146.766Z" fill="#D1D3D4"/>
<path fill-rule="evenodd" clip-rule="evenodd" d="M276.056 136.906C277.16 135.285 278.211 133.823 278.272 131.942C281.097 130.465 283.86 129.026 285.04 126.133C284.348 129.209 281.409 130.678 278.615 132.117C278.47 134.12 277.701 135.612 276.056 136.906Z" fill="#D1D3D4"/>
<path fill-rule="evenodd" clip-rule="evenodd" d="M259.322 166.31C262.55 158.666 272.577 153.138 280.533 152.659C272.166 151.874 261.096 159.785 259.322 166.31Z" fill="#D1D3D4"/>
<path fill-rule="evenodd" clip-rule="evenodd" d="M282.52 143.652C284.073 143.903 285.276 143.652 286.632 143.18L287.492 142.906C284.606 145.608 283.426 150.253 279.3 151.615C282.513 149.796 284.416 146.606 286.434 143.545C285.429 143.812 283.67 144.367 282.52 143.652Z" fill="#D1D3D4"/>
<path fill-rule="evenodd" clip-rule="evenodd" d="M289.03 133.564C290.598 133.815 291.816 133.564 293.179 133.092L294.047 132.818C291.322 135.696 289.936 140.241 285.764 141.611C289.22 139.86 290.743 136.381 292.974 133.457C291.969 133.724 290.187 134.28 289.03 133.564Z" fill="#D1D3D4"/>
<path fill-rule="evenodd" clip-rule="evenodd" d="M292.22 131.965C296.392 127.047 297.382 123.004 297.458 117.56C296.978 122.167 294.748 128.158 292.22 131.965Z" fill="#D1D3D4"/>
<path fill-rule="evenodd" clip-rule="evenodd" d="M287.02 126.468C287.4 123.94 289.296 121.999 290.827 120.073C292.623 117.811 294.283 115.588 294.854 112.589C294.511 115.642 292.943 118.207 291.047 120.499C289.471 122.41 288.055 124.169 287.02 126.468Z" fill="#D1D3D4"/>
<path fill-rule="evenodd" clip-rule="evenodd" d="M258.538 215.774C259.839 212.615 260.852 209.136 262.793 205.808C265.496 201.172 270.582 197.373 270.118 192.66C269.608 192.363 269.097 192.066 268.587 191.769C269.501 191.206 271.503 192.652 271.648 193.551C274.351 191.031 276.026 189.576 279.231 188.754C283.403 187.681 288.101 189.234 291.062 183.699C291.321 185.739 288.862 188.092 287.644 189.561C289.426 188.952 291.123 188.023 292.402 185.503C295.95 185.062 299.605 185.001 302.11 180.577C302.3 181.894 301.828 183.387 300.899 184.993C305.147 178.956 312.388 180.075 315.365 171.913C316.903 178.202 311.672 192.081 303.769 191.792C305.224 192.112 306.434 191.525 307.865 191.792C303.13 195.644 298.402 199.55 292.151 197.654C293.407 198.598 296.346 198.834 298.143 199.101C295.197 199.535 290.773 204.012 286.57 204.301C288.299 205.138 289.547 206.105 288.733 207.613C288.512 206.95 288.146 206.326 287.796 205.702C280.16 203.578 267.514 204.621 262.017 211.838C261.37 212.691 260.86 213.658 260.372 214.701C259.832 215.858 257.487 218.333 258.538 215.774Z" fill="white"/>
<path fill-rule="evenodd" clip-rule="evenodd" d="M258.317 216.779C260.258 212.82 261.446 209.927 263.799 207.354C268.542 202.154 277.83 197.281 284.431 195.233C288.055 194.106 291.519 193.002 294.961 191.693C297.968 190.551 300.838 189.531 303.48 188.008C307.142 185.899 310.157 183.211 312.327 179.862C313.461 178.11 314.367 176.177 315.007 174.052L315.159 173.017L315.136 174.151C314.596 176.375 313.728 178.415 312.578 180.273C310.53 183.584 307.599 186.318 304.051 188.427C301.173 190.14 298.036 191.183 294.747 192.355C294.626 192.401 294.504 192.439 294.39 192.485C291.39 193.535 288.383 194.411 285.231 195.484C278.279 197.845 269.082 202.062 264.095 207.704C261.842 210.247 260.312 213.11 258.317 216.779Z" fill="#D1D3D4"/>
<path fill-rule="evenodd" clip-rule="evenodd" d="M263.212 206.007C266.364 202.253 269.524 199.314 270.841 194.297C270.338 199.368 266.608 202.596 263.212 206.007Z" fill="#D1D3D4"/>
<path fill-rule="evenodd" clip-rule="evenodd" d="M273.369 193.581C275.531 191.647 277.145 189.896 280.107 189.607C282.284 189.394 284.576 189.241 286.883 188.472C284.576 189.706 282.254 189.721 280.023 189.904C277.1 190.14 275.638 192.302 273.369 193.581Z" fill="#D1D3D4"/>
<path fill-rule="evenodd" clip-rule="evenodd" d="M288.824 189.858C290.37 188.838 291.801 187.932 292.524 186.318C295.516 186.036 298.44 185.77 300.503 183.668C298.805 186.105 295.714 186.333 292.76 186.6C291.915 188.29 290.72 189.31 288.824 189.858Z" fill="#D1D3D4"/>
<path fill-rule="evenodd" clip-rule="evenodd" d="M263.73 209.547C269.273 204.027 279.992 202.786 287.103 205.199C280.091 201.53 267.613 204.484 263.73 209.547Z" fill="#D1D3D4"/>
<path fill-rule="evenodd" clip-rule="evenodd" d="M292.052 198.05C293.324 198.827 294.458 199.04 295.806 199.108L296.651 199.177C293.171 200.509 290.484 204.141 286.395 203.852C289.844 203.41 292.646 201.309 295.494 199.36C294.534 199.223 292.806 199.078 292.052 198.05Z" fill="#D1D3D4"/>
<path fill-rule="evenodd" clip-rule="evenodd" d="M301.333 191.571C302.612 192.355 303.762 192.569 305.125 192.637L305.977 192.706C302.574 194.251 299.742 197.715 295.615 197.426C299.255 197.129 301.828 194.639 304.813 192.881C303.838 192.751 302.087 192.607 301.333 191.571Z" fill="#D1D3D4"/>
<path fill-rule="evenodd" clip-rule="evenodd" d="M304.691 191.312C310.081 188.51 312.388 185.336 314.398 180.615C312.335 184.46 308.254 188.891 304.691 191.312Z" fill="#D1D3D4"/>
<path fill-rule="evenodd" clip-rule="evenodd" d="M302.11 184.666C303.343 182.595 305.688 181.575 307.706 180.448C310.081 179.115 312.32 177.768 313.888 175.354C312.502 177.897 310.218 179.572 307.744 180.897C305.696 181.993 303.838 183.029 302.11 184.666Z" fill="#D1D3D4"/>
<path fill-rule="evenodd" clip-rule="evenodd" d="M324.402 203.73C327.326 202.71 330.303 201.316 333.729 200.631C338.502 199.679 344.144 200.852 347.06 197.7C346.953 197.175 346.854 196.649 346.748 196.124C347.684 196.406 347.897 198.636 347.372 199.276C350.707 199.596 352.702 199.855 355.191 201.537C358.427 203.722 360.201 207.849 365.736 206.532C364.51 207.933 361.427 207.681 359.698 207.735C361.183 208.58 362.835 209.173 365.31 208.526C367.746 210.673 369.977 213.117 374.491 212.158C373.715 213.079 372.421 213.658 370.761 213.993C377.415 213.247 381.009 218.835 388.34 215.95C384.99 220.776 372.428 225.565 367.868 220.023C368.522 221.203 369.649 221.675 370.334 222.809C364.868 221.911 359.379 221.043 356.904 215.66C357.018 217.084 358.625 219.216 359.523 220.594C357.452 218.85 351.757 218.538 349.032 215.858C349.504 217.541 349.595 218.964 348.088 219.322C348.4 218.774 348.605 218.15 348.826 217.541C345.674 211.077 337.368 203.121 329.161 203.722C328.194 203.791 327.227 204.027 326.229 204.324C325.118 204.651 322.034 204.552 324.402 203.73Z" fill="white"/>
<path fill-rule="evenodd" clip-rule="evenodd" d="M323.58 204.179C327.432 203.113 330.112 202.184 333.28 202.23C339.66 202.329 348.552 205.702 353.92 208.953C356.866 210.734 359.698 212.424 362.653 213.97C365.233 215.325 367.655 216.658 370.274 217.541C373.913 218.759 377.545 219.193 381.123 218.652C382.996 218.371 384.854 217.822 386.681 216.977L387.48 216.46L386.696 217.13C384.861 218.097 382.95 218.736 381.001 219.071C377.522 219.673 373.898 219.322 370.342 218.18C367.449 217.251 364.853 215.752 362.081 214.229C361.983 214.176 361.876 214.115 361.777 214.061C359.257 212.66 356.851 211.138 354.232 209.646C348.446 206.341 340.056 202.641 333.226 202.641C330.143 202.641 327.273 203.326 323.58 204.179Z" fill="#D1D3D4"/>
<path fill-rule="evenodd" clip-rule="evenodd" d="M333.843 201.027C338.289 200.913 342.18 201.294 346.382 199.162C342.637 201.872 338.198 201.278 333.843 201.027Z" fill="#D1D3D4"/>
<path fill-rule="evenodd" clip-rule="evenodd" d="M348.385 200.456C350.996 200.761 353.158 200.806 355.138 202.641C356.592 203.989 358.069 205.458 359.98 206.562C357.757 205.74 356.349 204.171 354.887 202.763C352.968 200.913 350.616 201.225 348.385 200.456Z" fill="#D1D3D4"/>
<path fill-rule="evenodd" clip-rule="evenodd" d="M360.201 208.709C361.822 209.143 363.3 209.577 364.83 209.098C366.817 210.963 368.758 212.783 371.431 212.92C368.751 213.232 366.741 211.275 364.784 209.425C363.132 209.867 361.716 209.669 360.201 208.709Z" fill="#D1D3D4"/>
<path fill-rule="evenodd" clip-rule="evenodd" d="M331.749 203.502C338.83 203.951 346.123 210.483 348.758 216.764C347.029 209.798 337.52 203.098 331.749 203.502Z" fill="#D1D3D4"/>
<path fill-rule="evenodd" clip-rule="evenodd" d="M356.585 215.828C356.821 217.152 357.361 218.058 358.122 219.01L358.587 219.627C355.587 218.066 351.506 218.416 349.245 215.47C351.621 217.548 354.734 218.188 357.772 218.949C357.277 218.218 356.333 216.955 356.585 215.828Z" fill="#D1D3D4"/>
<path fill-rule="evenodd" clip-rule="evenodd" d="M366.566 218.226C366.802 219.566 367.35 220.48 368.119 221.439L368.591 222.056C365.5 220.67 361.442 220.838 359.15 217.861C361.541 220.152 364.777 220.404 367.761 221.37C367.266 220.647 366.314 219.368 366.566 218.226Z" fill="#D1D3D4"/>
<path fill-rule="evenodd" clip-rule="evenodd" d="M368.759 220.358C373.905 222.33 377.446 221.995 381.861 220.518C378.009 221.431 372.542 221.317 368.759 220.358Z" fill="#D1D3D4"/>
<path fill-rule="evenodd" clip-rule="evenodd" d="M371.72 214.61C373.867 214.206 375.969 215.188 377.956 215.873C380.285 216.681 382.547 217.396 385.135 217.016C382.577 217.602 380.065 217.061 377.674 216.178C375.687 215.432 373.867 214.792 371.72 214.61Z" fill="#D1D3D4"/>
<defs>
<clipPath id="clip0">
<rect width="107" height="95" fill="white" transform="translate(141.5 -11.9999)"/>
</clipPath>
</defs>
</svg>
