<svg width="19" height="22" viewBox="0 0 19 22" fill="none" xmlns="http://www.w3.org/2000/svg">
<path d="M8.71732 22.0002C8.16345 22.0002 3.33303 21.9366 1.35364 19.6031C0.645422 18.7678 0.37303 17.7236 0.554625 16.5886L0.572784 16.4887C0.590944 16.407 0.600023 16.3344 0.618183 16.2618L0.954134 14.9361C1.24469 13.9283 1.54432 13.0748 1.88027 12.2757C2.25254 11.4041 2.73376 10.5688 3.39659 9.6517C4.25008 8.46225 5.27609 7.11845 6.65621 6.29219C7.11928 6.0198 7.84566 5.70201 8.69916 5.75649C9.56173 5.70201 10.279 6.01072 10.7421 6.29219C12.0677 7.08213 13.0938 8.37145 14.0108 9.6517C14.6646 10.5688 15.1458 11.4041 15.5271 12.2757C15.9448 13.2382 16.2989 14.3005 16.6076 15.5081L16.7983 16.2618C17.0798 17.4784 16.8618 18.5952 16.1445 19.4941C14.2287 21.9366 9.28026 22.0002 8.71732 22.0002ZM2.61573 15.7714L2.36149 16.8156C2.25254 17.5057 2.37057 18.0051 2.74284 18.4318C3.96861 19.8755 7.47339 20.1933 8.71732 20.1933H8.7264C9.99756 20.1933 13.5659 19.8664 14.7463 18.3773C15.1185 17.9143 15.2093 17.3695 15.0459 16.6794L14.8734 15.9712C14.5828 14.8544 14.256 13.8829 13.8837 13.0021C13.5568 12.2485 13.1392 11.5221 12.558 10.7049C11.8135 9.66078 10.9328 8.49857 9.84321 7.85391C9.48002 7.64507 9.11683 7.5452 8.79904 7.57244L8.71732 7.58152L8.62652 7.57244C8.31781 7.5452 7.94554 7.64507 7.60051 7.85391C6.52002 8.49857 5.6302 9.66078 4.88566 10.7049C4.30456 11.5221 3.88689 12.2485 3.56002 13.0021C3.25131 13.7194 2.97892 14.5003 2.72468 15.3901L2.61573 15.7714Z" fill="#A0A3B1"/>
<path d="M15.0096 6.98233C13.0847 6.98233 11.5229 5.42061 11.5229 3.4957C11.5229 1.5708 13.0847 0 15.0096 0C16.9345 0 18.4962 1.56172 18.4962 3.48662C18.4962 5.41153 16.9345 6.98233 15.0096 6.98233ZM15.0096 1.81595C14.0834 1.81595 13.3389 2.56957 13.3389 3.48662C13.3389 4.40368 14.0925 5.1573 15.0096 5.1573C15.9266 5.1573 16.6802 4.40368 16.6802 3.48662C16.6802 2.56957 15.9266 1.81595 15.0096 1.81595Z" fill="#A0A3B1"/>
</svg>
