<svg width="21" height="17" viewBox="0 0 21 17" fill="none" xmlns="http://www.w3.org/2000/svg">
<g clip-path="url(#clip0)">
<path d="M20.9412 11.3326V14.3326C20.9412 15.7126 19.8212 16.8326 18.4412 16.8326H16.4412C16.1612 16.8326 15.9412 16.6026 15.9412 16.3326V9.33262C15.9412 9.05262 16.1612 8.83262 16.4412 8.83262H16.9412V8.82262H17.9412V8.83262H18.4412C19.8212 8.83262 20.9412 9.95262 20.9412 11.3326Z" fill="#7FD2F2"/>
<path d="M5.94116 9.33262V16.3326C5.94116 16.6026 5.72116 16.8326 5.44116 16.8326H3.44116C2.06116 16.8326 0.941162 15.7126 0.941162 14.3326V11.3326C0.941162 9.95262 2.06116 8.83262 3.44116 8.83262H3.94116V8.82262H4.94116V8.83262H5.44116C5.72116 8.83262 5.94116 9.04262 5.94116 9.33262Z" fill="#7FD2F2"/>
<path d="M17.9412 7.81261V8.82261H16.9412V7.81261C16.9412 4.50261 14.2512 1.81261 10.9412 1.81261C7.63116 1.81261 4.94116 4.50261 4.94116 7.81261V8.82261H3.94116V7.81261C3.94116 3.95261 7.07116 0.812614 10.9412 0.812614C14.8112 0.812614 17.9412 3.95261 17.9412 7.81261Z" fill="#7FD2F2" stroke="#7FD2F2" stroke-width="0.25" stroke-miterlimit="10"/>
</g>
<defs>
<clipPath id="clip0">
<rect width="20" height="16.15" fill="white" transform="translate(0.941162 0.682617)"/>
</clipPath>
</defs>
</svg>
