<svg width="23" height="22" viewBox="0 0 23 22" fill="none" xmlns="http://www.w3.org/2000/svg">
<path d="M20.8204 7.50594L13.2282 0.819133C12.1436 -0.265457 10.3778 -0.265456 9.33806 0.774315L1.6563 7.55076C0.912323 8.29473 0.5 9.28969 0.5 10.3474V19.302C0.5 20.7899 1.71008 22 3.19803 22H19.3324C20.8114 22 22.0215 20.7899 22.0215 19.302V10.3474C22.0215 9.28969 21.6092 8.29473 20.8204 7.50594ZM20.2288 19.302C20.2288 19.8039 19.8254 20.2073 19.3324 20.2073H13.6495V14.4348C13.6495 13.9149 13.2372 13.5026 12.7173 13.5026H9.80416C9.29324 13.5026 8.87195 13.9149 8.87195 14.4348V20.2073H3.19803C2.69607 20.2073 2.29271 19.8039 2.29271 19.302V10.3474C2.29271 9.78268 2.52576 9.21798 2.8843 8.85047L10.5661 2.08299C10.7543 1.89476 10.9963 1.79616 11.2473 1.79616C11.5162 1.79616 11.7851 1.90372 12.0002 2.11885L19.5924 8.81462C20.0047 9.22694 20.2288 9.77372 20.2288 10.3474V19.302Z" fill="#A0A3B1"/>
</svg>
