<svg width="20" height="24" viewBox="0 0 20 24" fill="none" xmlns="http://www.w3.org/2000/svg">
<path d="M4.82328 6.31132C4.82328 9.29253 7.24793 11.7154 10.231 11.7154C13.2142 11.7154 15.6387 9.28514 15.6387 6.30412C15.6387 3.32291 13.2141 0.9 10.231 0.9C7.24785 0.9 4.82328 3.323 4.82328 6.31132ZM6.46559 6.30412C6.46559 4.23332 8.15166 2.54134 10.231 2.54134C12.3103 2.54134 13.9964 4.23332 13.9964 6.30412C13.9964 8.37479 12.3032 10.0669 10.231 10.0669C8.15875 10.0669 6.46559 8.37479 6.46559 6.30412Z" fill="#A0A3B1" stroke="#A0A3B1" stroke-width="0.2"/>
<path d="M15.2543 24.0001H5.20733C2.60776 24.0001 0.5 21.6235 0.5 18.6924C0.5 15.7612 2.61654 13.3846 5.20733 13.3846H15.2543C17.8539 13.3846 19.9616 15.7711 19.9616 18.6924C19.9616 21.6136 17.8539 24.0001 15.2543 24.0001ZM5.20733 15.3651C3.5826 15.3651 2.25646 16.8604 2.25646 18.6924C2.25646 20.5243 3.5826 22.0196 5.20733 22.0196H15.2543C16.879 22.0196 18.2052 20.5243 18.2052 18.6924C18.2052 16.8604 16.879 15.3651 15.2543 15.3651H5.20733Z" fill="#A0A3B1"/>
</svg>
